<?xml version="1.0" standalone="no"?>
<!DOCTYPE svg PUBLIC "-//W3C//DTD SVG 1.1//EN" "http://www.w3.org/Graphics/SVG/1.1/DTD/svg11.dtd" >
<svg xmlns="http://www.w3.org/2000/svg">
<metadata>
This is a custom SVG webfont generated by Font Squirrel.
Copyright   : Copyright c 2006 by Jos Buivenga All rights reserved
Designer    : Jos Buivenga exljbris
Foundry     : Jos Buivenga
Foundry URL : httpwwwjosbuivengademonnl
</metadata>
<defs>
<font id="webfontt93zpPJE" horiz-adv-x="798" >
<font-face units-per-em="2048" ascent="1638" descent="-410" />
<missing-glyph horiz-adv-x="409" />
<glyph unicode=" "  horiz-adv-x="409" />
<glyph unicode="&#x09;" horiz-adv-x="409" />
<glyph unicode="&#xa0;" horiz-adv-x="409" />
<glyph unicode="!" horiz-adv-x="434" d="M324 1133l-66 -854q-82 0 -82 20l-10 823l6 13q4 8 17 29l26 41l29 44q16 25 29.5 41.5t27.5 26.5t25 8zM311 72q0 -16 -41 -54t-57 -38t-53 39.5t-37 56.5q0 14 40 55t54 41q16 0 55 -41t39 -59z" />
<glyph unicode="&#x22;" horiz-adv-x="567" d="M70 1090q0 16 44 61t58 45l102 -88q-12 -92 -64 -175t-122 -83q-23 0 -45 14q92 61 107 135q-80 71 -80 91zM336 1090q0 16 44 61t58 45l103 -88q-12 -92 -64.5 -175t-122.5 -83q-23 0 -45 14q92 61 107 135q-80 71 -80 91z" />
<glyph unicode="#" horiz-adv-x="1126" d="M117 479l252 4l22 197l-229 -6q2 104 41 104l200 2l46 377q12 -2 28.5 -4t43 -17.5t24.5 -35.5l-43 -318l219 4l45 371q12 -2 28.5 -4t43 -17.5t24.5 -35.5l-41 -312l275 5q4 -94 -35 -97l-252 -8l-27 -199l228 5q4 -94 -35 -97l-207 -6l-49 -379q-10 2 -24.5 4t-37 15.5 t-20.5 29.5l39 328l-225 -6l-50 -371q-10 2 -24.5 4t-37 15.5t-20.5 29.5l37 320l-280 -6q2 104 41 104zM489 682l-26 -199l223 4l25 199z" />
<glyph unicode="$" horiz-adv-x="870" d="M498 1237l-62 -4l-22 151q41 57 61 58q8 0 21.5 -14.5t23.5 -28.5l8 -15zM408 -45l61 4l23 -152q-41 -57 -62 -57q-8 0 -21.5 14.5t-23.5 28.5l-8 14zM504 1214q252 0 252 -75l-31 -142q-14 14 -41 34t-112 53.5t-173 33.5q-72 0 -109.5 -46t-37.5 -126q0 -59 53 -116.5 t128 -105.5l151 -101q76 -53 129 -128t53 -161q0 -152 -90 -253t-266 -101q-115 0 -213.5 22.5t-98.5 79.5q0 98 31 129q45 -59 124 -98t171 -39q207 0 207 176q0 78 -53.5 146.5t-128.5 121.5l-153 107q-77 53 -130 120.5t-53 143.5q0 92 34.5 159.5t95 101.5t124 49 t137.5 15z" />
<glyph unicode="%" horiz-adv-x="1216" d="M543 1012q0 -106 -72 -188.5t-199 -82.5q-96 0 -149 65.5t-53 158.5q0 106 71.5 187t198.5 81q94 0 148.5 -64.5t54.5 -156.5zM307 1178q-70 0 -102.5 -50.5t-32.5 -128.5q0 -84 32 -143t103 -59q135 0 135 176q0 197 -135 205zM815 1255l-338 -1368q-6 0 -37.5 14.5 t-31.5 26.5l340 1370q2 0 18 -6t32.5 -17.5t16.5 -19.5zM1161 240q0 -109 -71.5 -190t-198.5 -81q-96 0 -149.5 65.5t-53.5 158.5q0 106 71.5 187t198.5 81q94 0 148.5 -64.5t54.5 -156.5zM926 406q-70 0 -102.5 -50.5t-32.5 -128.5q0 -84 31.5 -143t103.5 -59 q135 0 135 176q0 197 -135 205z" />
<glyph unicode="&#x26;" horiz-adv-x="1251" d="M1128 719h93q0 -27 -46.5 -52.5t-93.5 -39.5l-45 -13q-29 -8 -55.5 -26.5t-44.5 -38t-42 -58t-36 -61l-38 -74.5l-36 -71q109 -98 211.5 -152.5t134 -59.5t52.5 -5q-16 -90 -107 -91q-166 0 -358 189q-51 -92 -133 -139t-174 -47q-166 0 -261.5 102t-95.5 244 q0 113 63.5 217t174.5 162q-70 143 -70 237q0 125 88 198.5t232 73.5q127 0 190.5 -71.5t63.5 -171.5q0 -86 -40 -173t-93 -87q-8 0 -13 2q33 82 33 219q0 80 -44 148.5t-118 68.5q-72 0 -117 -48t-45 -108q0 -121 107.5 -300t269.5 -355q6 10 33 66.5t35 72t34.5 61.5 t42.5 61l46 46q31 31 57.5 42t64 21.5t80.5 10.5zM326 639q-117 -86 -117 -260q0 -127 66.5 -225.5t170.5 -98.5q135 0 220 158q-109 106 -203 225t-137 201z" />
<glyph unicode="'" horiz-adv-x="301" d="M70 1090q0 16 44 61t58 45l102 -88q-12 -92 -64 -175t-122 -83q-23 0 -45 14q92 61 107 135q-80 71 -80 91z" />
<glyph unicode="(" horiz-adv-x="565" d="M70 498q0 262 107.5 473t299.5 284q0 -27 -8 -46t-15.5 -25l-23.5 -19q-127 -88 -192.5 -265t-65.5 -386q0 -193 60.5 -355.5t170.5 -252.5q72 -57 72 -80q-201 49 -303 231.5t-102 440.5z" />
<glyph unicode=")" horiz-adv-x="518" d="M442 584q0 -262 -107.5 -473t-299.5 -285q0 27 8 46t15.5 25.5t23.5 18.5q127 88 192.5 265t65.5 386q0 193 -60.5 355.5t-170.5 253.5q-72 57 -72 79q201 -49 303 -231t102 -440z" />
<glyph unicode="*" horiz-adv-x="780" d="M330 1417q-2 18 15 34.5t36 25.5l16 8q8 -2 20.5 -8.5t31 -23.5t14.5 -36q-49 -279 -72 -278q-8 0 -23.5 69.5t-27.5 139.5zM670 1292q18 10 38.5 5t36.5 -17l17 -12q14 -78 -27 -90l-203 -68q-70 -18 -73 -10q-4 8 48 56t107 93zM731 936q16 -8 22.5 -30.5t4.5 -41.5 l-2 -20q-2 -2 -6.5 -5l-16.5 -10.5t-23.5 -11.5t-24.5 -4t-21 8l-150 133q-61 59 -55 68q10 18 272 -86zM453 705q2 -18 -15.5 -35t-36.5 -25l-16 -8q-8 2 -20.5 7t-31 23.5t-14.5 37.5l46 213q16 66 26 65q8 0 23.5 -69.5t27.5 -139.5zM113 829q-18 -10 -39 -5t-37 18 l-17 12q-14 76 27 90l203 68q70 18 74 10t-48.5 -56l-107.5 -94zM51 1186q-16 8 -22 30.5t-4 40.5l2 21q2 2 6 5t16 10t23.5 11.5t25 4.5t21.5 -9l149 -133q61 -59 56 -67q-11 -18 -273 86z" />
<glyph unicode="+" horiz-adv-x="704" d="M418 686l-10 -166l206 6q-6 -96 -28 -96l-183 -8l-12 -217q-10 0 -27.5 1t-44 14t-26.5 36l8 160l-211 -8q8 104 41 104l174 4l8 213q4 0 11.5 -1t26 -4t31.5 -7t24.5 -12.5t11.5 -18.5z" />
<glyph unicode="," horiz-adv-x="344" d="M70 70q0 16 44 61t58 45l102 -88q-12 -92 -64 -175t-122 -83q-23 0 -45 14q92 61 107 136q-80 70 -80 90z" />
<glyph unicode="-" horiz-adv-x="602" d="M152 512l360 14q-25 -96 -49 -98l-373 -20q39 104 62 104z" />
<glyph unicode="." horiz-adv-x="352" d="M270 72q0 -16 -41 -54t-57 -38t-53 39.5t-37 56.5q0 14 40 55t54 41q16 0 55 -41t39 -59z" />
<glyph unicode="/" horiz-adv-x="509" d="M84 -147l336 1368l61 -21q20 -12 19 -20l-334 -1370l-64 22q-20 11 -18 21z" />
<glyph unicode="0" d="M748 473q0 -227 -99.5 -360t-290.5 -133q-137 0 -223 118.5t-86 292.5q0 229 100.5 364.5t288.5 135.5q310 0 310 -418zM403 819q-209 -10 -215 -313q0 -215 52.5 -338t152.5 -117q115 6 164 89t49 263q0 227 -50.5 323.5t-152.5 92.5z" />
<glyph unicode="1" d="M518 834l-12 -715q0 -25 51 -44l102 -38q51 -18 50 -37h-535q2 23 98.5 55.5t98.5 63.5l12 620h-229q6 53 47 66l293 84q24 -16 24 -55z" />
<glyph unicode="2" d="M197 96l415 13q43 2 91.5 47t68.5 45q-18 -201 -39 -201h-653q-23 0 -33 55l84 82q227 221 275 281q84 104 83 200q0 90 -48 137.5t-119 47.5q-96 0 -191 -72q-6 31 -6 43q0 25 12 37l28 22q17 13 78.5 35.5t127.5 22.5q131 0 198.5 -80t67.5 -190q0 -115 -117.5 -244 t-322.5 -281z" />
<glyph unicode="3" d="M504 625q0 80 -62.5 125t-146.5 45q-106 0 -170 -64q-6 31 -6 43q0 23 10 37q10 8 28.5 21.5t80 36t127.5 22.5q129 0 204.5 -73t75.5 -173q0 -154 -149 -239l-119 -50q303 -20 303 -290q0 -174 -163 -301t-347 -127q-86 0 -100 55q207 16 334.5 121.5t127.5 236.5 q0 92 -71.5 153.5t-210.5 74.5q-10 0 -21.5 12t-17.5 24l-6 11q139 55 219 136t80 163z" />
<glyph unicode="4" d="M641 238h147v-7q0 -29 -37.5 -53t-74.5 -35l-37 -8l-12 -235q-6 -98 -44 -178t-102 -80q-12 0 -18 2q4 0 12 20.5t18.5 139t10.5 319.5h-414q-55 0 -84 37l547 729q4 0 11 -1t23.5 -7.5t30 -16.5t23.5 -31.5t10 -50.5zM506 238l24 481l-374 -481h350z" />
<glyph unicode="5" d="M694 745h-422l-32 -245q219 -14 332.5 -134t113.5 -253q0 -190 -149.5 -330.5t-360.5 -140.5q-84 0 -100 55q223 14 344 119.5t121 242.5q0 131 -105.5 227.5t-281.5 114.5q-2 4 -7.5 11.5t-10.5 30t-1 46.5l58 336q27 23 75 25l385 18q37 2 45 -26.5t-4 -96.5z" />
<glyph unicode="6" d="M326 672q10 39 54 56t81 17q154 0 228.5 -105t74.5 -241q0 -106 -37 -198t-128 -156.5t-222 -64.5q-164 0 -246 129t-82 294q0 190 84 372.5t229.5 298.5t309.5 116q61 0 90 -51q-242 -31 -400.5 -227.5t-158.5 -491.5q0 -150 71.5 -259.5t174.5 -109.5q88 0 130 88 t42 205q0 328 -295 328z" />
<glyph unicode="7" d="M111 856h587q20 0 38 -5t26 -11l8 -4l-297 -795q-72 -195 -171 -309.5t-200 -114.5q-45 0 -71 18q76 43 115.5 73t92 108t93.5 198l254 744l-240 -8q-82 -2 -141.5 -23.5t-92 -41t-53.5 -17.5z" />
<glyph unicode="8" d="M121 918q0 117 93 203.5t251 86.5q129 0 201.5 -70.5t72.5 -162.5q0 -90 -55 -157.5t-172 -141.5q111 -68 169 -164t58 -197q0 -139 -106.5 -237t-292.5 -98q-143 0 -220 82.5t-77 179.5q0 109 79 214t193 177q-194 109 -194 285zM616 262q0 70 -31.5 134.5t-74.5 105.5 t-73.5 64.5t-43.5 27.5q-76 -51 -137 -139t-61 -181q0 -76 52 -147.5t148 -75.5q98 0 159.5 63.5t61.5 147.5zM442 719l21 18q23 16 42 36t41.5 48.5t37 64.5t14.5 72q0 66 -46 122.5t-130 56.5q-82 0 -130 -59.5t-48 -119.5q0 -45 27.5 -91t68.5 -77.5t64.5 -48t37.5 -22.5 z" />
<glyph unicode="9" d="M483 199q-10 -39 -54 -56.5t-81 -17.5q-154 0 -228.5 105.5t-74.5 240.5q0 106 37 198.5t128 157t222 64.5q164 0 246 -129t82 -295q0 -297 -177 -552t-425 -286q-61 0 -90 52q233 31 385.5 250t152.5 520q0 147 -71.5 257.5t-174.5 110.5q-88 0 -130 -88t-42 -205 q0 -47 4.5 -85t21.5 -86t48 -79.5t87 -54t134 -22.5z" />
<glyph unicode=":" horiz-adv-x="354" d="M270 592q0 -16 -41 -54t-57 -38t-53 40t-37 56q0 14 40 55t54 41q16 0 55 -41t39 -59zM272 72q0 -16 -41 -54t-57 -38t-53 39.5t-37 56.5q0 14 40 55t54 41q16 0 55 -41t39 -59z" />
<glyph unicode=";" horiz-adv-x="385" d="M303 592q0 -16 -41 -54t-57.5 -38t-53 40t-36.5 56q0 14 40 55t54 41q16 0 55 -41t39 -59zM96 70q0 16 44 61t59 45l102 -88q-12 -92 -64.5 -175t-121.5 -83q-23 0 -45 14q92 61 106 136q-80 70 -80 90z" />
<glyph unicode="&#x3c;" horiz-adv-x="577" d="M532 860l-264 -358l250 -352q-18 -16 -132 65.5t-219.5 176.5t-105.5 112q2 31 224 206t247 150z" />
<glyph unicode="=" horiz-adv-x="724" d="M172 606l461 15q-31 -96 -62 -99l-479 -18q51 102 80 102zM170 367l465 14q-33 -96 -64 -98l-481 -21q49 105 80 105z" />
<glyph unicode="&#x3e;" horiz-adv-x="577" d="M311 502l-264 358q25 25 247 -150t224 -206q0 -16 -105.5 -111.5t-219 -177.5t-132.5 -65z" />
<glyph unicode="?" horiz-adv-x="563" d="M535 975q0 -51 -42 -115.5t-94.5 -118t-96.5 -127t-46 -143.5l-8 -192q-82 0 -82 20l6 199q2 74 56.5 157.5l106.5 156.5t52 122q0 45 -32.5 73.5t-77 44t-86 36t-62 63.5t-6.5 111l16 73q45 -57 148 -108q131 -68 189.5 -126t58.5 -126zM299 72q0 -16 -41 -54t-57.5 -38 t-53 39.5t-36.5 56.5q0 14 39.5 55t54.5 41q16 0 55 -41t39 -59z" />
<glyph unicode="@" horiz-adv-x="1415" d="M743 41q-82 -57 -163 -57q-92 0 -151.5 71.5t-59.5 196.5q0 115 48 224.5t147.5 186t226.5 76.5q76 0 174 -37q0 -317 -97 -632q55 -63 115 -64q106 0 174 123t68 244q0 162 -77 292t-192.5 195.5t-238.5 65.5q-201 0 -365 -152.5t-164 -394.5q0 -225 146.5 -406.5 t372.5 -189.5q-16 -49 -95 -49q-158 0 -284.5 101.5t-189 245.5t-62.5 294q0 193 100 341t252 222t320 74q242 0 411.5 -158t169.5 -446q0 -100 -45 -211t-131 -192t-184 -81q-115 0 -226 117zM737 86l33 137l36 154q13 59 25.5 140t12.5 149q-164 0 -246 -103.5t-82 -253.5 q0 -55 10.5 -102t49 -88t102.5 -41q28 0 59 8z" />
<glyph unicode="A" horiz-adv-x="1163" d="M131 129l465 1079q92 -16 104 -53l332 -1026q14 -43 65.5 -74.5t49.5 -54.5h-404q2 18 39 34.5t69 38.5q24 16 24 40q0 8 -3 16l-110 373h-377l-156 -373q-4 -11 -4 -21q0 -22 22 -37q32 -22 71.5 -37.5t37.5 -33.5h-344q2 23 51.5 54.5t67.5 74.5zM606 1030l-190 -452 h323z" />
<glyph unicode="B" horiz-adv-x="1032" d="M49 1194l492 14q137 0 219 -75.5t82 -182.5q0 -88 -66.5 -172t-163.5 -119q160 -10 247 -102t87 -217q0 -135 -96 -240.5t-262 -115.5l-539 16q2 20 66.5 54t66.5 75l19 936q0 25 -23.5 44t-52.5 29.5t-52.5 25t-23.5 30.5zM336 592l-10 -512l225 -17q2 0 10 -1t10 -1 q100 0 151.5 64.5t51.5 161.5q0 117 -67.5 211t-171.5 94h-199zM336 1118v-446h205q57 31 100 95t43 132q0 98 -55.5 163.5t-149.5 65.5z" />
<glyph unicode="C" horiz-adv-x="1124" d="M1061 956q-20 18 -54 46t-132.5 73t-186.5 45q-225 0 -346 -151.5t-121 -364.5q0 -207 132 -356.5t339 -149.5q117 0 221.5 29t151.5 57l45 31q4 -16 4 -25q0 -88 -155.5 -148t-307.5 -60q-274 0 -433 162.5t-159 396.5q0 174 71 323.5t226.5 249.5t370.5 100 q139 0 252 -26.5t113 -85.5q0 -107 -31 -146z" />
<glyph unicode="D" horiz-adv-x="1361" d="M360 1118l-18 -1028q184 -12 295 -12q250 0 384 152.5t134 363.5q0 113 -50 225.5t-157.5 197.5t-247.5 89zM307 1194h-2q4 0 84 3t181.5 6t156.5 3q262 0 414.5 -135t156.5 -409q0 -127 -39.5 -246t-117.5 -218.5t-210 -158.5t-302 -59l-561 20q2 20 66.5 54t66.5 75 l16 936q0 25 -20.5 45t-47 30.5t-47 24t-20.5 29.5h225z" />
<glyph unicode="E" horiz-adv-x="964" d="M338 666l328 6q41 2 74.5 47t54.5 45l-7 -313q-20 0 -50.5 63.5t-71.5 65.5l-330 6l-8 -494h381q33 0 63.5 23.5t52 52.5t45 52.5t39.5 23.5l-45 -244h-796q2 20 59 54t59 75l17 936q0 25 -24.5 44t-55.5 29.5t-53.5 25t-18.5 30.5h823l-24 -238q-16 0 -34.5 21.5 t-33 48.5t-45 49.5t-71.5 22.5l-320 8z" />
<glyph unicode="F" horiz-adv-x="897" d="M336 586l-8 -457q0 -31 32.5 -53.5t65.5 -40t31 -35.5h-389q2 20 59 54t59 75l17 936q0 25 -24.5 44t-55.5 29.5t-53.5 25t-18.5 30.5h823l-24 -238q-16 0 -34.5 21.5t-33 48.5t-45 49.5t-71.5 22.5l-320 8l-8 -440l328 6q41 2 74.5 47t54.5 45l-7 -313q-20 0 -50.5 63.5 t-71.5 65.5z" />
<glyph unicode="G" horiz-adv-x="1175" d="M1061 956q-20 18 -54 46t-126.5 73t-169.5 45q-238 0 -363 -143t-125 -356q0 -221 130 -386t337 -165q143 0 213 45q12 14 12 164v96q0 41 -50 74.5t-50 54.5h369q-4 -18 -34 -35.5t-59.5 -40t-29.5 -53.5l-8 -264q0 -18 -6.5 -35t-12.5 -23l-6 -8q-213 -63 -379 -63 q-264 0 -426 151.5t-162 415.5q0 127 41 242.5t120 212t209 153.5t294 57q367 0 367 -118q0 -39 -10.5 -84.5t-20.5 -55.5z" />
<glyph unicode="H" horiz-adv-x="1394" d="M961 1194h391q-6 -20 -69.5 -52t-65.5 -67l-21 -956q0 -27 32 -46.5t64.5 -37t30.5 -35.5h-389q2 20 59.5 49t59.5 64l8 467h-750l-8 -461q0 -27 32 -46.5t64.5 -37t30.5 -35.5h-389q2 20 59.5 52t59.5 67l18 956q2 33 -53 64.5t-49 54.5h385q-2 -20 -68.5 -52t-68.5 -67 l-11 -391h750l8 391q0 27 -27.5 46.5t-56 37t-26.5 35.5z" />
<glyph unicode="I" horiz-adv-x="526" d="M344 1075l-20 -956q0 -20 23.5 -38t51 -28t51 -23.5t21.5 -29.5h-428q2 20 68.5 52t68.5 67l19 956q0 20 -21.5 37.5t-48.5 28t-47.5 24t-15.5 29.5h415q-2 -20 -68.5 -52t-68.5 -67z" />
<glyph unicode="J" horiz-adv-x="509" d="M80 1194h428q-4 -20 -72.5 -54t-70.5 -75l-15 -768q-2 -70 -2 -104.5t-3 -95t-8 -91.5l-13 -81q-8 -50 -19.5 -75.5l-29 -61.5t-41 -55.5t-52 -41t-67.5 -32.5t-84 -17q-23 8 -39.5 38.5t-20.5 57.5l-4 29q158 0 196 26.5t40 124.5v49l18 1098q0 25 -22.5 44t-50 29.5 t-49 25t-19.5 30.5z" />
<glyph unicode="K" horiz-adv-x="1132" d="M825 1194h236q-4 -20 -37 -38.5t-81 -42t-73 -48.5l-383 -387l76 -78l412 -469q23 -27 61.5 -51.5t60 -42t19.5 -37.5h-244q-14 33 -147 194l-260 306l-127 143q448 473 487 551zM332 580l-8 -461q0 -20 22.5 -38t49 -28t48 -23.5t19.5 -29.5h-422q2 18 37 35.5t68.5 39 t33.5 54.5l19 936q0 25 -21.5 44t-47.5 29.5t-46.5 25t-17.5 30.5h419q-4 -20 -71.5 -52t-69.5 -67z" />
<glyph unicode="L" horiz-adv-x="884" d="M324 92h360q33 0 63.5 23.5t52 52.5t45 52.5t40.5 23.5l-45 -244h-797q2 20 68.5 54t68.5 75l19 946q0 20 -21.5 37.5t-48.5 28t-47.5 24t-15.5 29.5h415q-2 -20 -68.5 -52t-68.5 -67z" />
<glyph unicode="M" horiz-adv-x="1671" d="M334 1016l-15 -887q0 -25 30 -44t66 -29.5t65.5 -25t29.5 -30.5h-430q0 20 67.5 54t69.5 75l23 936q0 41 -82 75t-82 54h325l457 -981l455 981h301q-2 -20 -69.5 -54t-69.5 -75l-19 -936q-2 -41 83 -75t85 -54h-465q0 20 73 54t75 75l28 899l-495 -1057q-33 0 -43 21 q-457 930 -463 1024z" />
<glyph unicode="N" horiz-adv-x="1427" d="M201 129l10 936q0 41 -83 75t-83 54h320l800 -975l6 846q0 41 -91 75t-91 54h385q-2 -20 -51 -53t-49 -70l-12 -1030q0 -18 -22.5 -31.5t-45.5 -17.5l-23 -6q-819 954 -868 1071l4 -928q0 -41 95.5 -75t95.5 -54h-435q0 20 68 54t70 75z" />
<glyph unicode="O" horiz-adv-x="1318" d="M1255 662q0 -127 -43 -247t-121.5 -218.5t-208.5 -157.5t-290 -59q-244 0 -386.5 165.5t-142.5 395.5q0 174 76 325.5t232.5 249.5t363.5 98q238 0 379 -159.5t141 -392.5zM649 66q197 0 327 156.5t130 359.5q0 219 -121 382.5t-328 163.5q-188 0 -315 -155.5 t-127 -360.5q0 -209 129 -377.5t305 -168.5z" />
<glyph unicode="P" horiz-adv-x="940" d="M459 0h-430q2 20 69.5 54t69.5 75l18 936q0 25 -21.5 44t-49 29.5t-49 25t-21.5 30.5l539 10q150 -2 229.5 -87t79.5 -206q0 -154 -95.5 -261t-254.5 -109q-14 0 -37 3t-64 20.5t-49 47.5q336 0 336 269q0 98 -74.5 172.5t-185.5 74.5l-139 -8l-19 -991q-2 -41 73 -75 t75 -54z" />
<glyph unicode="Q" horiz-adv-x="1318" d="M1360 -272q2 -6 2 -14.5t-5 -31t-19.5 -40t-53.5 -31.5t-94 -14q-137 0 -321.5 110.5t-313.5 274.5q-229 12 -360.5 174.5t-131.5 384.5q0 174 76 325.5t232.5 249.5t363.5 98q238 0 379 -159.5t141 -392.5q0 -250 -153.5 -449t-425.5 -227q338 -260 637 -260q31 0 47 2z M649 66q197 0 327 156.5t130 359.5q0 219 -121 382.5t-328 163.5q-188 0 -315 -155.5t-127 -360.5q0 -209 129 -377.5t305 -168.5z" />
<glyph unicode="R" horiz-adv-x="1120" d="M350 1120l-10 -508h143q119 0 181.5 73t62.5 175q0 111 -65.5 188.5t-176.5 77.5zM338 541l-6 -422q0 -20 22.5 -38t50 -28t50 -23.5t22.5 -29.5h-430q2 18 37 35.5t68.5 39t33.5 54.5l19 936q0 25 -23.5 44t-53.5 29.5t-53.5 25t-23.5 30.5l531 10q147 0 227 -82 t80 -202q0 -104 -61.5 -199.5t-172.5 -153.5l312 -436q23 -33 59 -56l60 -39q24 -15 24 -36h-248q-33 66 -63 111l-258 376l-33 54h-170z" />
<glyph unicode="S" horiz-adv-x="870" d="M504 1214q252 0 252 -75l-31 -142q-14 14 -41 34t-112 53.5t-173 33.5q-72 0 -109.5 -46t-37.5 -126q0 -59 53 -116.5t128 -105.5l151 -101q76 -53 129 -128t53 -161q0 -152 -90 -253t-266 -101q-115 0 -213.5 22.5t-98.5 79.5q0 98 31 129q45 -59 124 -98t171 -39 q207 0 207 176q0 78 -53.5 146.5t-128.5 121.5l-153 107q-77 53 -130 120.5t-53 143.5q0 92 34.5 159.5t95 101.5t124 49t137.5 15z" />
<glyph unicode="T" horiz-adv-x="1112" d="M920 1100l-295 -4l-21 -967q0 -25 27.5 -44t61.5 -29.5t61.5 -25t25.5 -30.5h-456q2 20 68.5 54t68.5 75l18 967l-280 4q-45 0 -80 -39t-59.5 -78t-43.5 -37l19 254q285 -16 446 -16h148l473 16l-6 -254q-14 -2 -31.5 22.5t-34 54.5t-45 53.5t-65.5 23.5z" />
<glyph unicode="U" horiz-adv-x="1296" d="M1149 1065l-8 -365q-4 -147 -14.5 -245.5t-41 -196.5t-83 -153.5t-142.5 -90t-219 -34.5q-483 0 -483 442l12 643q0 25 -21.5 45t-47 30.5t-47 24t-21.5 29.5h420q-2 -20 -69 -54t-69 -75l-12 -582q0 -418 373 -417q172 0 264 115.5t96 398.5l8 485q0 25 -25.5 44 t-56 29.5t-55 25t-24.5 30.5h397q-4 -18 -66.5 -53t-64.5 -76z" />
<glyph unicode="V" horiz-adv-x="1142" d="M1022 1065l-479 -1106q-43 0 -49 21l-383 1083q-14 41 -59.5 73.5t-39.5 57.5h404q-2 -18 -41 -34.5t-72 -38.5q-24 -16 -24 -38q0 -9 4 -18l282 -840l350 840q4 11 5 21q0 23 -24 37q-34 22 -76 37.5t-40 33.5h363q-6 -20 -53.5 -52t-67.5 -77z" />
<glyph unicode="W" horiz-adv-x="1693" d="M1575 1065l-469 -1106q-41 0 -47 21l-225 655l-291 -676q-41 0 -47 21l-385 1083q-14 41 -59.5 73.5t-39.5 57.5h404q-2 -18 -41 -34.5t-72 -38.5q-24 -16 -24 -38q0 -9 4 -18l282 -840l226 539l-103 299q-14 41 -50 73.5t-34 57.5h391q-2 -18 -42 -34.5t-72 -38.5 q-24 -16 -24 -38q0 -9 3 -18l268 -840l340 840q4 11 5 21q0 23 -24 37q-34 22 -76 37.5t-40 33.5h359q-6 -20 -51.5 -52t-65.5 -77z" />
<glyph unicode="X" horiz-adv-x="1042" d="M453 600l-248 465q-20 35 -53 58l-52 37q-18 13 -12 34h385q-2 -18 -37 -33.5t-58.5 -37t-2.5 -58.5l176 -344l235 344q14 27 14 44q0 13 -8 20q-19 15 -54.5 31t-32.5 34h337q-6 -23 -52 -52.5t-79 -74.5l-305 -426l279 -510q20 -37 58 -60.5t62.5 -37t22.5 -33.5h-379 q2 16 29 32.5t41 30t-2 54.5l-211 399l-285 -410q-12 -18 2.5 -32.5t41 -22.5t49 -21.5t20.5 -29.5h-334q2 27 42 54.5t56 49.5z" />
<glyph unicode="Y" horiz-adv-x="1103" d="M602 588l-10 -459q0 -25 25.5 -44t57.5 -29.5t58.5 -25t24.5 -30.5h-451q2 20 70.5 54t71.5 75l6 416l-324 520q-25 39 -58 62l-50 35q-12 8 -12 21q0 5 1 11h410q-2 -18 -44 -32.5t-69 -36.5q-14 -12 -14 -28q0 -14 10 -32l242 -408l297 408q23 29 6.5 48.5t-45.5 29.5 t-54.5 23.5t-23.5 27.5h377q-6 -20 -26 -35l-52 -37q-33 -23 -57 -55z" />
<glyph unicode="Z" horiz-adv-x="1034" d="M102 1194h879q8 0 19.5 -9t17.5 -18l6 -8l-727 -987q-41 -55 -84 -84q348 10 481 20.5t184.5 28t112.5 70.5l17 14q8 -29 8 -74q0 -147 -60 -147h-913l-33 35l738 979q18 25 39.5 48t35.5 36l13 10q-164 -4 -285 -11t-187.5 -12.5t-125 -19.5t-71.5 -18.5t-54 -24.5 l-50 -25q-4 20 -4 47q0 150 43 150z" />
<glyph unicode="[" horiz-adv-x="387" d="M68 -158l24 1391l283 20q-10 -51 -201 -84l-20 -1263q2 0 7 -1t18.5 -3t25.5 -5t30.5 -8.5t33 -10.5t29.5 -11t26.5 -13.5t16.5 -15.5t5 -16z" />
<glyph unicode="\" horiz-adv-x="430" d="M338 -168l-338 1368l90 2l340 -1370q-86 -20 -92 0z" />
<glyph unicode="]" horiz-adv-x="387" d="M336 1233l-25 -1391l-278 -20q-2 14 17.5 28.5t49 23.5l59 17.5t50.5 10.5l20 4l21 1263q-190 31 -197 84z" />
<glyph unicode="^" horiz-adv-x="960" d="M111 754l-60 59l420 420l420 -420l-60 -59l-360 360z" />
<glyph unicode="_" horiz-adv-x="819" d="M39 -31h762q-6 -90 -27 -90h-762q4 90 27 90z" />
<glyph unicode="`" horiz-adv-x="522" d="M414 911q-12 -12 -297 197q-10 10 -9 29.5t7 38.5l4 18q8 4 20.5 7t41 8t30.5 -7l164 -221q43 -66 39 -70z" />
<glyph unicode="a" horiz-adv-x="755" d="M479 147l2 195q-111 -4 -227 -41q-35 -10 -35 -100q0 -57 28.5 -101.5t74.5 -44.5q12 0 52 22.5t72.5 45t32.5 24.5zM483 387l2 166q0 61 -19.5 87t-90.5 26q-39 0 -76 -17.5t-57.5 -37t-43 -45t-28.5 -31.5q-25 27 -25 133q0 37 73 54t134 17q115 0 190.5 -53t75.5 -143 l-10 -418q0 -29 29 -50.5t56.5 -39t27.5 -35.5l-244 -14l10 114q-41 -53 -99 -86.5t-112 -33.5q-82 0 -140 56t-58 146q0 61 31.5 105.5t85 66t104.5 29.5t109 8q34 0 75 -4z" />
<glyph unicode="b" horiz-adv-x="866" d="M279 596l-11 -506q20 -12 75.5 -24.5t102.5 -12.5q102 0 159 85t57 204q0 135 -60.5 221t-159.5 86q-65 0 -163 -53zM279 655q106 84 225 84q147 0 224 -96t77 -237q0 -166 -94.5 -296t-247.5 -130q-102 0 -215 22.5t-111 69.5l21 1056q0 27 -15.5 45.5t-35 27.5 t-35 21.5t-15.5 26.5l244 66l-22 -162v-498z" />
<glyph unicode="c" horiz-adv-x="675" d="M444 739q102 0 143.5 -16t41.5 -53l-23 -117q-10 12 -29.5 30.5t-69.5 50.5t-91 32q-78 0 -143.5 -81t-65.5 -206q0 -141 67.5 -219t178.5 -78q100 0 180 41v-10q0 -66 -77 -99.5t-175 -33.5q-154 0 -238 99t-84 245q0 164 102.5 289.5t282.5 125.5z" />
<glyph unicode="d" horiz-adv-x="886" d="M266 168q57 -86 148 -86q33 0 81 20.5t78.5 40t32.5 23.5l8 477l-188 21q-111 0 -165 -84t-54 -203q0 -129 59 -209zM756 1153l-21 -1028q0 -29 25.5 -50.5t51.5 -39t26 -35.5l-234 -14l21 149q-45 -68 -121 -111.5t-154 -43.5q-129 0 -210 101t-81 238q0 162 99.5 291 t251.5 129q20 0 206 -22l9 411q0 27 -15.5 45.5t-35 27.5t-35 21.5t-15.5 26.5l244 66z" />
<glyph unicode="e" horiz-adv-x="741" d="M209 401v-22q0 -135 74.5 -218t187.5 -83q92 0 182 57q4 -57 -42 -94t-105.5 -49t-130.5 -12q-147 0 -230.5 100t-83.5 244q0 164 103.5 289.5t286.5 125.5q90 0 158.5 -66.5t82.5 -166.5l8 -60q-27 -18 -71 -20zM215 453l352 26q-14 74 -63 134.5t-101 60.5 q-59 0 -115.5 -67.5t-72.5 -153.5z" />
<glyph unicode="f" horiz-adv-x="526" d="M156 109l8 454q0 31 -52.5 73t-52.5 62v7l107 20l2 70q2 49 3 66.5t5 66.5t11.5 71.5l22.5 65.5t37 67l54 57q33 34 75 54.5t99 40t127 31.5q31 0 51.5 -36t22.5 -99q-205 0 -286 -34t-83 -157l-8 -270h207q-18 -61 -39 -66l-170 -39l-10 -505q-2 -31 100 -58.5 t102 -50.5h-432q2 23 49.5 52.5t49.5 56.5z" />
<glyph unicode="g" horiz-adv-x="815" d="M260 41q49 -20 148 -33l170 -21q72 -9 129 -51t57 -120q0 -133 -124 -217t-275 -84q-125 0 -224.5 63.5t-99.5 173.5q0 61 27.5 107.5t83.5 46.5q-8 -31 -9 -70q0 -109 76 -164t180 -55q94 0 186.5 48t92.5 114q0 49 -80 74.5t-179.5 33t-196.5 36t-126 81.5 q0 18 16.5 35.5t53.5 34t58.5 24.5t72.5 25l57 18q-129 0 -202.5 81t-73.5 192q0 129 93 227t261 98q96 0 162 -49l201 49q16 -33 16 -67q0 -61 -51 -62q-68 0 -111 25q49 -68 49 -162q0 -86 -28.5 -149.5t-107.5 -120t-119 -78t-162 -74.5q-15 -6 -21 -10zM387 684 q-76 0 -130 -66.5t-54 -160.5q0 -98 54 -177t142 -79q76 0 126 71.5t50 155.5q0 94 -52 172t-136 84z" />
<glyph unicode="h" horiz-adv-x="948" d="M575 739q100 0 164 -64.5t64 -182.5l-8 -383q-2 -27 62.5 -56.5t64.5 -52.5h-361q2 23 49 51.5t49 57.5l9 352q0 63 -18.5 106t-47.5 59.5t-48 21.5t-38 5q-55 0 -215 -102l-8 -442q-2 -27 62.5 -56.5t64.5 -52.5h-357q0 23 48.5 52.5t50.5 56.5l20 1019q0 27 -15 45.5 t-34.5 27.5t-35 21.5t-15.5 26.5l244 66l-13 -162l-12 -532q129 118 274 118z" />
<glyph unicode="i" horiz-adv-x="442" d="M160 109l10 469q2 43 -50 72.5t-52 47.5l245 66l-12 -162l-10 -493q0 -23 30.5 -40.5t62.5 -33t30 -35.5h-357q2 23 51.5 52.5t51.5 56.5zM330 1024q0 -16 -41 -54t-57.5 -38t-53.5 40t-37 56q0 14 40 55t55 41q16 0 55 -41t39 -59z" />
<glyph unicode="j" horiz-adv-x="432" d="M160 0l10 578q2 43 -50 72.5t-52 47.5l245 66l-12 -162l-12 -592q-2 -49 -2 -65.5t-3 -63.5t-9 -66l-15 -61q-10 -41 -24 -61l-38 -52q-24 -32 -52.5 -50.5t-68.5 -39t-89 -32.5q-29 0 -46.5 31.5t-19.5 62.5l-4 31q49 0 81 1t59.5 7t43 8t27.5 18l17 24q5 7 8.5 37 t3.5 45v60zM336 1024q0 -16 -41 -54t-57.5 -38t-53.5 40t-37 56q0 14 40 55t55 41q16 0 55 -41t39 -59z" />
<glyph unicode="k" horiz-adv-x="905" d="M649 604l-211 -151l328 -344q25 -25 62.5 -43.5t59 -32t21.5 -33.5h-231q0 18 -95 126l-190 206l-94 98l266 203q14 12 14.5 20.5t-22 24.5t-22.5 33q0 4 2 8h305q-6 -20 -34 -34.5t-76 -35t-83 -45.5zM162 109l20 1019q2 43 -49 71t-51 42q0 6 2 8l244 66l-13 -162 l-22 -1044q-2 -27 62.5 -56.5t64.5 -52.5h-348q2 23 45 52.5t45 56.5z" />
<glyph unicode="l" horiz-adv-x="460" d="M307 1153l-20 -1044q0 -23 31.5 -40.5t64.5 -33t31 -35.5h-357q2 23 49.5 52.5t49.5 56.5l20 1019q0 27 -16.5 46.5t-37 27.5t-34.5 20.5t-10 26.5l244 66z" />
<glyph unicode="m" horiz-adv-x="1443" d="M1157 461q0 59 -17.5 102t-44 60.5t-46 24.5t-33.5 7q-63 0 -228 -104q4 -37 5 -59l-9 -383q-2 -27 62.5 -56.5t64.5 -52.5h-360q2 23 49 51.5t49 57.5l8 352q0 59 -17 102t-44 60.5t-46.5 24.5t-33.5 7q-66 0 -225 -104l-8 -442q-2 -27 62.5 -56.5t64.5 -52.5h-357 q2 23 49.5 51.5t49.5 57.5l10 466q0 27 -16.5 45.5t-36 26.5t-36 18.5t-16.5 22.5q0 6 2 8l230 66l-17 -160q59 61 139.5 99t153.5 38q158 0 209 -137q61 61 139 99t152 38q100 0 163.5 -64.5t63.5 -182.5l-8 -383q-2 -27 62.5 -56.5t64.5 -52.5h-360q2 23 49 51.5t49 57.5z " />
<glyph unicode="n" horiz-adv-x="937" d="M657 461q0 59 -17 102t-44 60.5t-46.5 24.5t-33.5 7q-66 0 -225 -104l-8 -442q-2 -27 62.5 -56.5t64.5 -52.5h-357q2 23 49.5 51.5t49.5 57.5l10 466q0 27 -16.5 45.5t-36 26.5t-36 18.5t-16.5 22.5q0 6 2 8l230 66l-17 -160q59 61 139.5 99t153.5 38q100 0 164 -64.5 t64 -182.5l-9 -383q-2 -27 62.5 -56.5t64.5 -52.5h-360q2 23 49 51.5t49 57.5z" />
<glyph unicode="o" horiz-adv-x="849" d="M59 324q0 164 111 289.5t307 125.5q147 0 230.5 -99t83.5 -243q0 -166 -111 -291.5t-307 -125.5q-147 0 -230.5 100.5t-83.5 243.5zM641 352q0 127 -59.5 224.5t-157.5 97.5q-100 0 -158.5 -91t-58.5 -216q0 -127 59.5 -224.5t157.5 -97.5q100 0 158.5 91t58.5 216z" />
<glyph unicode="p" horiz-adv-x="907" d="M297 559l-10 -502l190 -4q102 8 162.5 96.5t60.5 202.5q0 129 -58 207t-152.5 78t-192.5 -78zM287 -4l-6 -369q-2 -27 81.5 -56.5t83.5 -51.5h-407q0 20 27 36l55 32q29 17 29 40l18 948q0 33 -26.5 52.5t-52.5 31t-26 23.5t3 14l229 66l-16 -160q111 137 256 137 q137 0 223 -95t86 -243q0 -158 -104.5 -289.5t-245.5 -131.5q-72 0 -207 16z" />
<glyph unicode="q" horiz-adv-x="880" d="M748 659l-19 -1032q0 -27 59.5 -56.5t59.5 -51.5h-373q0 23 60.5 52.5t62.5 55.5l8 434q-104 -84 -235 -84q-152 0 -228.5 98.5t-76.5 241.5q0 168 96 295t250 127l315 -22q21 -21 21 -58zM608 121l8 512l-188 16q-106 0 -164.5 -82t-58.5 -196q0 -123 60.5 -214 t162.5 -91q29 0 72 14t74.5 27.5t33.5 13.5z" />
<glyph unicode="r" horiz-adv-x="614" d="M295 762l-16 -160q123 141 245 141q92 0 92 -73q0 -49 -34 -109q-86 82 -140 82l-145 -72l-8 -462q-2 -31 88 -58.5t90 -50.5h-410q2 23 50.5 52.5t50.5 56.5l10 466q0 35 -25.5 55.5t-51 34t-25.5 31.5z" />
<glyph unicode="s" horiz-adv-x="626" d="M371 739q176 0 176 -57q0 -20 -7.5 -53t-15.5 -56l-8 -20l-28 33q-17 20 -70 53t-107 33q-68 0 -89 -25.5t-21 -79.5q0 -37 55 -79t121.5 -74.5t122 -86t55.5 -112.5q0 -123 -80 -179t-203 -56q-80 0 -141 20t-61 66l24 98q23 -41 87.5 -74t127.5 -33q115 0 115 109 q0 47 -54.5 93t-119 77t-118.5 84t-54 115q0 113 85 158.5t208 45.5z" />
<glyph unicode="t" horiz-adv-x="561" d="M217 874h55v-155h263q-20 -61 -43 -66l-222 -39l-6 -391q-2 -80 39 -112.5t92 -32.5q49 0 140 28v-8q0 -53 -63.5 -87t-127.5 -34q-94 0 -154.5 54.5t-60.5 177.5l8 354q2 31 -51 75t-53 67l114 22z" />
<glyph unicode="u" horiz-adv-x="933" d="M782 602l-6 -477q0 -29 25.5 -50.5t51.5 -39t26 -35.5l-234 -14l21 149q-147 -156 -295 -155q-100 0 -164 63t-64 184l9 351q0 27 -15.5 45t-35 27t-35 21.5t-15.5 26.5l246 66l-12 -162l-4 -364q-2 -66 36.5 -115t110.5 -49t219 110l4 394q0 43 -51 72.5t-51 47.5 l246 66z" />
<glyph unicode="v" horiz-adv-x="747" d="M670 610l-273 -641q-41 0 -49 21l-274 620q-10 25 -43 53.5t-27 55.5h322q-2 -20 -63 -48q-49 -22 -49 -48q0 -6 3 -13l189 -471l176 471q2 7 2 13q0 25 -38 48q-48 28 -46 48h258q-6 -23 -40 -50.5t-48 -58.5z" />
<glyph unicode="w" horiz-adv-x="1189" d="M1112 610l-272 -641q-41 0 -49 21l-203 456l-13 -49l-178 -428q-41 0 -49 21l-274 620q-10 25 -43 53.5t-27 55.5h322q-2 -20 -63 -48q-49 -22 -49 -48q0 -6 3 -13l189 -471l145 389l-35 82q-12 27 -42 54.5t-28 54.5h322q-2 -20 -62 -48q-49 -22 -49 -48q0 -6 2 -13 l189 -471l176 471q2 7 2 13q0 25 -38 48q-48 28 -46 48h258q-6 -23 -40 -50.5t-48 -58.5z" />
<glyph unicode="x" horiz-adv-x="727" d="M346 305l-158 -196q-14 -16 8.5 -34t52.5 -37.5t27 -37.5h-284q2 20 19.5 37.5t44 37t38.5 34.5l211 251l-170 250q-14 20 -40.5 39t-40 33t-7.5 37h315q-2 -20 -47 -48q-34 -21 -34 -45q0 -8 4 -16l104 -172l133 172q9 12 10 24q0 17 -19 36q-32 31 -30 49h246 q-6 -27 -54 -56.5t-67 -52.5l-180 -223l184 -278q10 -16 58.5 -49t46.5 -60h-301q2 20 32.5 52t16.5 57z" />
<glyph unicode="y" horiz-adv-x="755" d="M340 0l-262 610q-10 25 -43 53.5t-27 55.5h322q-2 -20 -62 -48q-49 -23 -49 -50q0 -5 2 -11l182 -471l175 471q3 7 2 14q0 25 -37 47q-47 28 -45 48h266q-6 -23 -43 -50.5t-51 -58.5l-385 -913q-76 -156 -213 -178q-49 8 -66.5 34.5t-30.5 90.5q94 2 161 31.5t89 76.5z " />
<glyph unicode="z" horiz-adv-x="718" d="M135 719h500q10 0 20.5 -9.5t16.5 -17.5l6 -8l-397 -532q-29 -39 -74 -74l242 6q66 2 121 43t79 47v-18q0 -12 -3 -42t-8 -53.5t-17.5 -42t-30.5 -18.5h-506l-33 35l393 524q20 27 42 47.5t34 28.5l10 8l-243 -8q-61 -2 -114.5 -39t-72.5 -37h-6q8 160 41 160z" />
<glyph unicode="{" horiz-adv-x="526" d="M156 537q78 -57 110.5 -167t30.5 -207t15.5 -180t66.5 -97.5t77.5 -36t32.5 -33.5l5 -15l-115 21q-72 12 -111 73.5t-52 147.5l-25.5 177t-49.5 179t-104 138q70 49 109.5 137t55 179t32 177t57.5 147.5t112 73.5l115 21q0 -6 -4 -15.5t-33.5 -32t-79.5 -36.5 q-51 -14 -70.5 -97t-20.5 -180.5t-37.5 -207t-116.5 -166.5z" />
<glyph unicode="|" horiz-adv-x="38" d="M0 1432h39v-1760h-39v1760z" />
<glyph unicode="}" horiz-adv-x="526" d="M389 537q-63 47 -96 127.5t-39 162.5t-9 160t-19.5 133.5t-57.5 67.5q-104 33 -117 84l115 -21q72 -12 110.5 -73.5t52 -147.5t26 -177t49 -179t104.5 -137q-70 -49 -110 -137.5t-55 -179.5t-31.5 -177t-57.5 -147.5t-113 -73.5l-114 -21q0 6 4 15.5t33.5 32t80.5 36.5 q49 14 68.5 97.5t22 180.5t38 207t115.5 167z" />
<glyph unicode="~" horiz-adv-x="733" d="M467 449l104 92l35 -31q-59 -133 -153 -133q-76 0 -199 145l-104 -90l-35 29q59 135 151 135q82 0 201 -147z" />
<glyph unicode="&#xa1;" horiz-adv-x="434" d="M111 -414l65 854q82 0 82 -20l10 -823l-6 -13q-4 -8 -17 -29l-26 -41l-29 -44q-16 -25 -29.5 -41.5t-27.5 -26.5t-24 -8zM123 647q0 16 41 54t57.5 38t53 -40t36.5 -56q0 -14 -40 -55t-54 -41q-16 0 -55 41t-39 59z" />
<glyph unicode="&#xa2;" horiz-adv-x="675" d="M428 762l-49 -4l-27 155q37 55 60 56q8 0 21 -14.5t22 -28.5l8 -15zM350 -45l49 2l27 -154q-37 -55 -59 -55q-8 0 -21.5 14.5t-21.5 28.5l-9 14zM444 739q102 0 143.5 -16t41.5 -53l-23 -117q-10 12 -29.5 30.5t-69.5 50.5t-91 32q-78 0 -143.5 -81t-65.5 -206 q0 -141 67.5 -219t178.5 -78q100 0 180 41v-10q0 -66 -77 -99.5t-175 -33.5q-154 0 -238 99t-84 245q0 164 102.5 289.5t282.5 125.5z" />
<glyph unicode="&#xa3;" horiz-adv-x="940" d="M201 129l45 434q2 25 -24.5 51.5t-52.5 49t-22 41.5l113 20l6 70q6 76 14.5 123t38 119.5t76.5 119.5t137.5 92t215.5 66q66 0 61 -135q-205 0 -289 -35t-96 -156l-25 -270h295q-25 -61 -45 -66l-264 -39l-41 -522h361q33 0 63.5 23.5t52 52.5t45 52.5t39.5 23.5 q-43 -244 -86 -244h-756q2 20 69 54t69 75z" />
<glyph unicode="&#xa5;" horiz-adv-x="1103" d="M621 612l167 6q-10 -80 -40 -81l-148 -7l-2 -133l178 6q-12 -80 -43 -81l-137 -7l-4 -186q0 -25 25.5 -44t57.5 -29.5t58.5 -25t24.5 -30.5h-451q2 20 70.5 54t71.5 75l2 180l-177 -8q16 88 48 88l131 4l2 131l-164 -6q18 86 47 86l78 2l-285 459q-25 39 -58 62l-50 35 q-16 11 -11 32h410q-2 -18 -44 -32.5t-68.5 -36t-4.5 -60.5l242 -408l297 408q23 29 6.5 48.5t-45.5 29.5t-54.5 23.5t-23.5 27.5h377q-6 -20 -26 -35l-52 -37q-33 -23 -57 -55z" />
<glyph unicode="&#xa7;" horiz-adv-x="704" d="M418 1024q176 0 176 -57q0 -20 -8 -53t-17 -54l-6 -22l-27 32q-17 20 -70.5 53t-107.5 33q-68 0 -89 -25.5t-21 -78.5q0 -37 55 -79t122 -74.5t122 -86t55 -112.5q0 -221 -283 -221l37 77q115 0 115 95q0 47 -54.5 93t-119 76.5t-118.5 84t-54 114.5q0 113 85 159t208 46 zM109 -55q23 -41 88 -74t127 -33q115 0 114 109q0 47 -54 93t-118.5 76.5t-119 84t-54.5 114.5q0 119 83 170.5t192 51.5l-33 -68q-59 0 -89 -27.5t-30 -62.5q0 -55 55.5 -104.5t122 -80t121.5 -84t55 -114.5q0 -123 -79.5 -179.5t-202.5 -56.5q-80 0 -141.5 20.5 t-61.5 65.5z" />
<glyph unicode="&#xa8;" horiz-adv-x="866" d="M346 1063q0 -16 -41 -54t-57.5 -38t-53 40t-36.5 56q0 14 40 55t54 41q16 0 55 -41t39 -59zM610 1063q0 -16 -41 -54t-57 -38t-53 40t-37 56q0 14 40 55t54 41q16 0 55 -41t39 -59z" />
<glyph unicode="&#xa9;" horiz-adv-x="1372" d="M733 762q88 0 124 -13.5t36 -46.5q0 -35 -4 -63.5t-8 -38.5l-7 -10q-88 100 -167 100q-68 0 -123.5 -66.5t-55.5 -177.5q0 -125 56.5 -190.5t154.5 -65.5q88 0 158 35q0 -61 -66.5 -95t-154.5 -34q-135 0 -212 87t-77 216q0 143 93 253t253 110zM1311 426 q-4 -258 -190.5 -442.5t-446.5 -184.5q-254 0 -433.5 180.5t-179.5 436.5q0 264 185.5 449.5t449.5 185.5q262 0 438.5 -181.5t176.5 -443.5zM1227 426q0 225 -154.5 390t-378.5 165q-221 0 -382.5 -166t-166.5 -389q0 -231 153 -393t384 -162q221 0 381 166t164 389z" />
<glyph unicode="&#xaa;" horiz-adv-x="755" d="M479 147l2 195q-111 -4 -227 -41q-35 -10 -35 -100q0 -57 28.5 -101.5t74.5 -44.5q12 0 52 22.5t72.5 45t32.5 24.5zM483 387l2 166q0 61 -19.5 87t-90.5 26q-39 0 -76 -17.5t-57.5 -37t-43 -45t-28.5 -31.5q-25 27 -25 133q0 37 73 54t134 17q115 0 190.5 -53t75.5 -143 l-10 -418q0 -29 29 -50.5t56.5 -39t27.5 -35.5l-244 -14l10 114q-41 -53 -99 -86.5t-112 -33.5q-82 0 -140 56t-58 146q0 61 31.5 105.5t85 66t104.5 29.5t109 8q34 0 75 -4z" />
<glyph unicode="&#xab;" horiz-adv-x="978" d="M532 860l-264 -358l250 -352q-18 -16 -132 65.5t-219.5 176.5t-105.5 112q2 31 224 206t247 150zM934 860l-264 -358l250 -352q-18 -16 -132 65.5t-219.5 176.5t-105.5 112q2 31 224 206t247 150z" />
<glyph unicode="&#xac;" horiz-adv-x="903" d="M750 657v-313h-82v231h-539v82h621z" />
<glyph unicode="&#xad;" horiz-adv-x="602" d="M152 512l360 14q-25 -96 -49 -98l-373 -20q39 104 62 104z" />
<glyph unicode="&#xae;" horiz-adv-x="946" d="M883 825q-2 -168 -125 -286.5t-293 -118.5t-287 118.5t-114.5 286.5t124 286t291.5 118t288 -117t116 -287zM805 825.5q4 139.5 -93.5 238.5t-234.5 99t-235.5 -99t-102.5 -239q-2 -143 94.5 -241.5t237.5 -98.5q135 0 232.5 100.5t101.5 240zM410 793l-2 -127 q0 -8 28.5 -25.5t26.5 -40.5h-197q2 20 25.5 37.5t23.5 28.5l9 321l-72 23l31 34l200 3q66 0 100.5 -33t34.5 -84q0 -37 -24.5 -72t-61.5 -47l111 -145q8 -10 24.5 -17.5t28.5 -9.5l11 -2l-31 -37l-92 2l-140 191h-34zM416 997l-4 -161h34q33 0 53.5 22.5t20.5 52.5 q0 33 -18.5 57.5t-50.5 30.5z" />
<glyph unicode="&#xaf;" horiz-adv-x="1024" d="M256 1108h506q-6 -90 -27 -90h-506q4 90 27 90z" />
<glyph unicode="&#xb0;" horiz-adv-x="720" d="M377 1147q-80 0 -136.5 -59.5t-56.5 -139.5t56.5 -139t136.5 -59t136 59t56 139t-56 139.5t-136 59.5zM377 1233q117 0 201 -84t84 -201t-84 -200.5t-201 -83.5t-201 83.5t-84 200.5t84 201t201 84z" />
<glyph unicode="&#xb1;" horiz-adv-x="704" d="M418 686l-10 -166l206 6q-6 -96 -28 -96l-183 -8l-12 -168q-96 12 -96 31l6 131l-211 -8q8 104 41 104l174 4l8 213q4 0 11.5 -1t26 -4t31.5 -7t24.5 -12.5t11.5 -18.5zM184 172l361 14q-25 -96 -49 -98l-373 -20q38 104 61 104z" />
<glyph unicode="&#xb2;" horiz-adv-x="718" d="M197 643l295 10q37 2 70.5 34t49.5 32l4 -2h7q-18 -150 -39 -150h-484l-28 43l96 92q61 57 92 89t66.5 75t51 82t15.5 82q0 41 -26.5 79t-79.5 38q-23 0 -58.5 -11.5t-60.5 -21.5t-25 -12q-2 10 -2 24q0 37 15 48q68 49 166 49q100 0 154 -56.5t54 -122.5 q0 -59 -39.5 -122.5t-71.5 -94t-110 -98.5q-14 -14 -22 -20z" />
<glyph unicode="&#xb3;" horiz-adv-x="573" d="M78 633q66 -23 131 -23q84 0 117.5 43t33.5 88q0 51 -38.5 89t-116.5 38q-43 0 -50.5 4.5t-19.5 28.5q90 10 145.5 56.5t55.5 99.5q0 90 -88 90q-43 0 -79 -10.5t-50 -20.5l-15 -10q-6 12 -6 35q0 29 58.5 55.5t122.5 26.5q72 0 127 -45t55 -117q0 -88 -90 -137l-86 -23 q98 0 152.5 -41t54.5 -102q0 -90 -70 -153.5t-170 -63.5q-43 0 -81 7t-56 13l-17 8q-20 12 -20 52v12z" />
<glyph unicode="&#xb4;" horiz-adv-x="522" d="M117 907q-6 6 44 80l101 143l53 72q10 10 31 8t41 -10l21 -6q2 -8 5 -18.5t6 -38t-9 -29.5z" />
<glyph unicode="&#xb5;" horiz-adv-x="755" d="M444 156l2 180q-76 -6 -182 -39q-12 -4 -12 -88q0 -45 18.5 -84t44.5 -53q27 16 73 47l63 41zM449 406l2 149q0 106 -9 107l-125 -19q-51 -14 -106 -61t-80 -43l-6 157q117 53 227 54q125 0 210 -56.5t85 -148.5l-10 -412q-2 -37 45 -63q68 -39 66 -68l-306 -18l4 82 q-119 -86 -170 -86q-94 0 -160.5 59t-66.5 151q0 63 35 108.5t92 67t112.5 31t117.5 9.5h43z" />
<glyph unicode="&#xb6;" horiz-adv-x="903" d="M823 776l-20 -1124q-66 0 -66 20l21 1125q65 -1 65 -21zM659 920l-22 -1268q-68 0 -68 20l13 594h-148q-172 0 -264 105.5t-92 255.5q0 162 101.5 287.5t269.5 125.5q80 0 176 -14t151 -27l55 -14q-2 -66 -26 -65h-146z" />
<glyph unicode="&#xb7;" horiz-adv-x="352" d="M270 614q0 -16 -41 -54t-57 -38t-53 40t-37 56q0 14 40 55.5t54 41.5q16 0 55 -41.5t39 -59.5z" />
<glyph unicode="&#xb8;" horiz-adv-x="776" d="M281 -68l63 29q68 -8 106.5 -50t38.5 -104q0 -123 -141 -169q-31 -10 -43 24q47 14 72.5 52t25.5 85q0 90 -81 101q-14 0 -24.5 8t-14.5 16z" />
<glyph unicode="&#xb9;" horiz-adv-x="585" d="M379 1106l-8 -447q0 -16 23.5 -27t51 -18.5t51 -20.5t21.5 -32h-416q2 27 73 51.5t71 46.5l10 431h-168q14 49 62 63l208 59q20 -23 21 -53v-53z" />
<glyph unicode="&#xba;" horiz-adv-x="849" d="M59 324q0 164 111 289.5t307 125.5q147 0 230.5 -99t83.5 -243q0 -166 -111 -291.5t-307 -125.5q-147 0 -230.5 100.5t-83.5 243.5zM641 352q0 127 -59.5 224.5t-157.5 97.5q-100 0 -158.5 -91t-58.5 -216q0 -127 59.5 -224.5t157.5 -97.5q100 0 158.5 91t58.5 216z" />
<glyph unicode="&#xbb;" horiz-adv-x="976" d="M311 502l-264 358q25 25 247 -150t224 -206q0 -16 -105.5 -111.5t-219 -177.5t-132.5 -65zM707 502l-265 358q25 25 247 -150t224 -206q0 -16 -105.5 -111.5t-219 -177.5t-131.5 -65z" />
<glyph unicode="&#xbc;" horiz-adv-x="753" d="M82 442l614 17q-6 -70 -26 -70l-615 -16q7 69 27 69zM528 -143h115q-2 -35 -33.5 -55.5t-52 -23.5t-35.5 -3l-4 -107q-2 -76 -102 -76v179h-336q-6 0 -12.5 8t-10.5 16l-2 6l394 492q80 -16 79 -47v-389zM414 -143l4 260l8 45l-256 -312q8 0 32.5 2.5t35.5 4.5h176z M459 1106l-8 -447q0 -16 23.5 -27t51 -18.5t51 -20.5t21.5 -32h-416q2 27 73 51.5t71 46.5l10 431h-168q14 49 61 63l209 59q20 -23 21 -53v-53z" />
<glyph unicode="&#xbd;" horiz-adv-x="743" d="M82 442l614 17q-6 -70 -26 -70l-615 -16q7 69 27 69zM461 1106l-8 -447q0 -16 23.5 -27t51 -18.5t51 -20.5t21.5 -32h-416q2 27 73 51.5t71 46.5l10 431h-168q14 49 61 63l209 59q20 -23 21 -53v-53zM229 -291l295 10q37 2 71 34t50 32l4 -2h6q-18 -150 -39 -150h-483 l-29 43l97 93q61 57 92 88.5t66.5 74.5t51 82t15.5 82q0 41 -26.5 79t-80.5 38q-23 0 -58.5 -11.5t-60 -21.5t-24.5 -12q-2 10 -2 25q0 37 14 47q68 49 166 49q100 0 154.5 -56.5t54.5 -121.5q0 -59 -40 -123t-71.5 -94.5t-109.5 -98.5q-14 -14 -23 -20z" />
<glyph unicode="&#xbe;" horiz-adv-x="753" d="M528 -143h115q-2 -35 -33.5 -55.5t-52 -23.5t-35.5 -3l-4 -107q-2 -76 -102 -76v179h-336q-6 0 -12.5 8t-10.5 16l-2 6l394 492q80 -16 79 -47v-389zM414 -143l4 260l8 45l-256 -312q8 0 32.5 2.5t35.5 4.5h176zM82 442l614 17q-6 -70 -26 -70l-615 -16q7 69 27 69z M188 633q66 -23 131 -23q84 0 118 43t34 88q0 51 -39 89t-117 38q-43 0 -50 4.5t-19 28.5q90 10 145 56.5t55 99.5q0 90 -88 90q-43 0 -78.5 -10.5t-50.5 -20.5l-14 -10q-6 12 -6 35q0 29 58.5 55.5t121.5 26.5q72 0 127 -45t55 -117q0 -88 -90 -137l-86 -23q98 0 152.5 -41 t54.5 -102q0 -90 -69.5 -153.5t-170.5 -63.5q-43 0 -80.5 7t-56.5 13l-16 8q-20 12 -21 52v12z" />
<glyph unicode="&#xbf;" horiz-adv-x="563" d="M29 -256q0 51 42 115.5t94 118t96 127t46 143.5l8 192q82 0 82 -20l-6 -199q-2 -74 -56 -157.5t-106.5 -156.5t-52.5 -122q0 -51 42 -83t93 -45t93 -51t42 -98q0 -25 -6 -51l-16 -73q-45 57 -148 108q-131 68 -189 126t-58 126zM264 647q0 16 41 54t57.5 38t53.5 -40 t37 -56q0 -14 -40 -55t-55 -41q-16 0 -55 41t-39 59z" />
<glyph unicode="&#xc0;" horiz-adv-x="1163" d="M131 129l465 1079q92 -16 104 -53l332 -1026q14 -43 65.5 -74.5t49.5 -54.5h-404q2 18 39 34.5t69 38t21 56.5l-110 373h-377l-156 -373q-14 -37 18 -58.5t71.5 -37t37.5 -33.5h-344q2 23 51.5 54.5t67.5 74.5zM606 1030l-190 -452h323zM731 1321q-12 -12 -297 197 q-10 10 -9 29.5t5 37.5l6 19q8 4 20.5 7t41 8t30.5 -7l164 -221q43 -66 39 -70z" />
<glyph unicode="&#xc1;" horiz-adv-x="1163" d="M131 129l465 1079q92 -16 104 -53l332 -1026q14 -43 65.5 -74.5t49.5 -54.5h-404q2 18 39 34.5t69 38t21 56.5l-110 373h-377l-156 -373q-14 -37 18 -58.5t71.5 -37t37.5 -33.5h-344q2 23 51.5 54.5t67.5 74.5zM606 1030l-190 -452h323zM516 1317q-6 6 44 79.5t104 143.5 l51 72q10 10 30.5 8t40.5 -10l21 -6q2 -8 5 -18.5t6 -38t-9 -29.5z" />
<glyph unicode="&#xc2;" horiz-adv-x="1163" d="M131 129l465 1079q92 -16 104 -53l332 -1026q14 -43 65.5 -74.5t49.5 -54.5h-404q2 18 39 34.5t69 38t21 56.5l-110 373h-377l-156 -373q-14 -37 18 -58.5t71.5 -37t37.5 -33.5h-344q2 23 51.5 54.5t67.5 74.5zM606 1030l-190 -452h323zM877 1294l-256 183l-259 -183 q-16 20 111 177t149.5 155t147.5 -158t107 -174z" />
<glyph unicode="&#xc3;" horiz-adv-x="1163" d="M131 129l465 1079q92 -16 104 -53l332 -1026q14 -43 65.5 -74.5t49.5 -54.5h-404q2 18 39 34.5t69 38t21 56.5l-110 373h-377l-156 -373q-14 -37 18 -58.5t71.5 -37t37.5 -33.5h-344q2 23 51.5 54.5t67.5 74.5zM606 1030l-190 -452h323zM729 1440l105 92q16 -12 22 -25.5 t4 -19.5l-2 -6q-27 -61 -59.5 -87t-83.5 -26q-76 0 -199 145l-104 -90q-16 12 -22.5 24.5t-4.5 18.5l2 7q29 63 59.5 88.5t81.5 25.5q82 0 201 -147z" />
<glyph unicode="&#xc4;" horiz-adv-x="1163" d="M131 129l465 1079q92 -16 104 -53l332 -1026q14 -43 65.5 -74.5t49.5 -54.5h-404q2 18 39 34.5t69 38t21 56.5l-110 373h-377l-156 -373q-14 -37 18 -58.5t71.5 -37t37.5 -33.5h-344q2 23 51.5 54.5t67.5 74.5zM606 1030l-190 -452h323zM586 1452q0 -16 -41 -54 t-57.5 -38t-53.5 40t-37 56q0 14 40 55t55 41q16 0 55 -41t39 -59zM850 1452q0 -16 -41 -54t-57.5 -38t-53 40t-36.5 56q0 14 39.5 55t54.5 41q16 0 55 -41t39 -59z" />
<glyph unicode="&#xc5;" horiz-adv-x="1163" d="M131 129l465 1079q92 -16 104 -53l332 -1026q14 -43 65.5 -74.5t49.5 -54.5h-404q2 18 39 34.5t69 38t21 56.5l-110 373h-377l-156 -373q-14 -37 18 -58.5t71.5 -37t37.5 -33.5h-344q2 23 51.5 54.5t67.5 74.5zM606 1030l-190 -452h323zM801 1475q0 -72 -53.5 -128.5 t-147.5 -56.5q-74 0 -115 45t-41 109q0 74 53.5 129t147.5 55q74 0 115 -45t41 -108zM625 1599q-111 -12 -111 -135q0 -51 28.5 -92t82.5 -53q106 14 106 135q0 51 -27.5 92t-78.5 53z" />
<glyph unicode="&#xc6;" horiz-adv-x="1513" d="M887 666l327 6q41 2 75 47t54 45l-6 -313q-20 0 -51 63.5t-72 65.5l-329 6l-8 -494h380q33 0 64 23.5t52.5 52.5t45 52.5t39.5 23.5l-45 -244h-797q2 20 59.5 54t59.5 75l8 457h-276l-238 -457q-6 -12 -6 -23q0 -31 66.5 -58.5t66.5 -47.5h-344q2 23 51.5 54.5t67.5 74.5 l524 1008q0 4 4 8q-16 8 -23 11t-18.5 9t-14.5 12.5t-3 12.5v4h823l-24 -238q-16 0 -34.5 22.5t-33 48.5t-45.5 48.5t-72 22.5l-319 8zM743 662l9 403q0 16 -15 35l-229 -438h235z" />
<glyph unicode="&#xc7;" horiz-adv-x="1124" d="M1061 956q-20 18 -54 46t-132.5 73t-186.5 45q-225 0 -346 -151.5t-121 -364.5q0 -207 132 -356.5t339 -149.5q117 0 221.5 29t151.5 57l45 31q4 -16 4 -25q0 -88 -155.5 -148t-307.5 -60q-274 0 -433 162.5t-159 396.5q0 174 71 323.5t226.5 249.5t370.5 100 q139 0 252 -26.5t113 -85.5q0 -107 -31 -146zM547 -68l63 29q68 -8 107 -50t39 -104q0 -123 -142 -169q-31 -10 -43 24q47 14 73 52t26 85q0 90 -82 101q-14 0 -24.5 8t-14.5 16z" />
<glyph unicode="&#xc8;" horiz-adv-x="964" d="M338 666l328 6q41 2 74.5 47t54.5 45l-7 -313q-20 0 -50.5 63.5t-71.5 65.5l-330 6l-8 -494h381q33 0 63.5 23.5t52 52.5t45 52.5t39.5 23.5l-45 -244h-796q2 20 59 54t59 75l17 936q0 25 -24.5 44t-55.5 29.5t-53.5 25t-18.5 30.5h823l-24 -238q-16 0 -34.5 21.5 t-33 48.5t-45 49.5t-71.5 22.5l-320 8zM666 1321q-12 -12 -297 197q-10 10 -9.5 29.5t5.5 37.5l6 19q8 4 20 7t41 8t31 -7l164 -221q43 -66 39 -70z" />
<glyph unicode="&#xc9;" horiz-adv-x="964" d="M338 666l328 6q41 2 74.5 47t54.5 45l-7 -313q-20 0 -50.5 63.5t-71.5 65.5l-330 6l-8 -494h381q33 0 63.5 23.5t52 52.5t45 52.5t39.5 23.5l-45 -244h-796q2 20 59 54t59 75l17 936q0 25 -24.5 44t-55.5 29.5t-53.5 25t-18.5 30.5h823l-24 -238q-16 0 -34.5 21.5 t-33 48.5t-45 49.5t-71.5 22.5l-320 8zM369 1317q-6 6 44 79.5t103 143.5l51 72q10 10 30.5 8t41.5 -10l20 -6q2 -8 5.5 -18.5t6.5 -38t-9 -29.5z" />
<glyph unicode="&#xca;" horiz-adv-x="964" d="M338 666l328 6q41 2 74.5 47t54.5 45l-7 -313q-20 0 -50.5 63.5t-71.5 65.5l-330 6l-8 -494h381q33 0 63.5 23.5t52 52.5t45 52.5t39.5 23.5l-45 -244h-796q2 20 59 54t59 75l17 936q0 25 -24.5 44t-55.5 29.5t-53.5 25t-18.5 30.5h823l-24 -238q-16 0 -34.5 21.5 t-33 48.5t-45 49.5t-71.5 22.5l-320 8zM770 1294l-256 183l-258 -183q-16 20 111 177t149.5 155t147 -158t106.5 -174z" />
<glyph unicode="&#xcb;" horiz-adv-x="964" d="M338 666l328 6q41 2 74.5 47t54.5 45l-7 -313q-20 0 -50.5 63.5t-71.5 65.5l-330 6l-8 -494h381q33 0 63.5 23.5t52 52.5t45 52.5t39.5 23.5l-45 -244h-796q2 20 59 54t59 75l17 936q0 25 -24.5 44t-55.5 29.5t-53.5 25t-18.5 30.5h823l-24 -238q-16 0 -34.5 21.5 t-33 48.5t-45 49.5t-71.5 22.5l-320 8zM477 1452q0 -16 -41 -54t-57.5 -38t-53 40t-36.5 56q0 14 40 55t54 41q16 0 55 -41t39 -59zM741 1452q0 -16 -41 -54t-57 -38t-53 40t-37 56q0 14 40 55t54 41q16 0 55 -41t39 -59z" />
<glyph unicode="&#xcc;" horiz-adv-x="528" d="M344 1075l-20 -956q0 -20 23.5 -38t51 -28t51 -23.5t21.5 -29.5h-428q2 20 68.5 52t68.5 67l19 956q0 20 -21.5 37.5t-48.5 28t-47.5 24t-15.5 29.5h415q-2 -20 -68.5 -52t-68.5 -67zM414 1321q-12 -12 -297 197q-10 10 -9 29.5t7 37.5l4 19q8 4 20.5 7t41 8t30.5 -7 l164 -221q43 -66 39 -70z" />
<glyph unicode="&#xcd;" horiz-adv-x="528" d="M344 1075l-20 -956q0 -20 23.5 -38t51 -28t51 -23.5t21.5 -29.5h-428q2 20 68.5 52t68.5 67l19 956q0 20 -21.5 37.5t-48.5 28t-47.5 24t-15.5 29.5h415q-2 -20 -68.5 -52t-68.5 -67zM158 1317q-6 6 44 80l101 143l53 72q10 10 31 8t41 -10l21 -6q2 -8 5 -18.5t6 -38 t-9 -29.5z" />
<glyph unicode="&#xce;" horiz-adv-x="528" d="M344 1075l-20 -956q0 -20 23.5 -38t51 -28t51 -23.5t21.5 -29.5h-428q2 20 68.5 52t68.5 67l19 956q0 20 -21.5 37.5t-48.5 28t-47.5 24t-15.5 29.5h415q-2 -20 -68.5 -52t-68.5 -67zM526 1294l-256 183l-258 -183q-16 20 111 177t149.5 155t147 -158t106.5 -174z" />
<glyph unicode="&#xcf;" horiz-adv-x="528" d="M344 1075l-20 -956q0 -20 23.5 -38t51 -28t51 -23.5t21.5 -29.5h-428q2 20 68.5 52t68.5 67l19 956q0 20 -21.5 37.5t-48.5 28t-47.5 24t-15.5 29.5h415q-2 -20 -68.5 -52t-68.5 -67zM236 1452q0 -16 -41 -54t-57.5 -38t-53.5 40t-37 56q0 14 40 55t54 41q16 0 55.5 -41 t39.5 -59zM500 1452q0 -16 -41 -54t-57.5 -38t-53.5 40t-37 56q0 14 40 55t55 41q16 0 55 -41t39 -59z" />
<glyph unicode="&#xd1;" horiz-adv-x="1427" d="M201 129l10 936q0 41 -83 75t-83 54h320l800 -975l6 846q0 41 -91 75t-91 54h385q-2 -20 -51 -53t-49 -70l-12 -1030q0 -18 -22.5 -31.5t-45.5 -17.5l-23 -6q-819 954 -868 1071l4 -928q0 -41 95.5 -75t95.5 -54h-435q0 20 68 54t70 75zM856 1440l105 92q16 -12 22 -25.5 t4 -19.5l-2 -6q-27 -61 -59.5 -87t-83.5 -26q-76 0 -199 145l-104 -90q-16 12 -22.5 24.5t-4.5 18.5l2 7q29 63 59.5 88.5t81.5 25.5q82 0 201 -147z" />
<glyph unicode="&#xd2;" horiz-adv-x="1318" d="M1255 662q0 -127 -43 -247t-121.5 -218.5t-208.5 -157.5t-290 -59q-244 0 -386.5 165.5t-142.5 395.5q0 174 76 325.5t232.5 249.5t363.5 98q238 0 379 -159.5t141 -392.5zM649 66q197 0 327 156.5t130 359.5q0 219 -121 382.5t-328 163.5q-188 0 -315 -155.5 t-127 -360.5q0 -209 129 -377.5t305 -168.5zM788 1321q-12 -12 -296 197q-10 10 -9.5 29.5t4.5 37.5l7 19q8 4 20 7t41 8t31 -7l164 -221q42 -66 38 -70z" />
<glyph unicode="&#xd3;" horiz-adv-x="1318" d="M1255 662q0 -127 -43 -247t-121.5 -218.5t-208.5 -157.5t-290 -59q-244 0 -386.5 165.5t-142.5 395.5q0 174 76 325.5t232.5 249.5t363.5 98q238 0 379 -159.5t141 -392.5zM649 66q197 0 327 156.5t130 359.5q0 219 -121 382.5t-328 163.5q-188 0 -315 -155.5 t-127 -360.5q0 -209 129 -377.5t305 -168.5zM553 1317q-6 6 44 79.5t103 143.5l52 72q10 10 30.5 8t40.5 -10l21 -6q2 -8 5 -18.5t6 -38t-9 -29.5z" />
<glyph unicode="&#xd4;" horiz-adv-x="1318" d="M1255 662q0 -127 -43 -247t-121.5 -218.5t-208.5 -157.5t-290 -59q-244 0 -386.5 165.5t-142.5 395.5q0 174 76 325.5t232.5 249.5t363.5 98q238 0 379 -159.5t141 -392.5zM649 66q197 0 327 156.5t130 359.5q0 219 -121 382.5t-328 163.5q-188 0 -315 -155.5 t-127 -360.5q0 -209 129 -377.5t305 -168.5zM934 1294l-256 183l-258 -183q-16 20 110.5 177t149 155t147.5 -158t107 -174z" />
<glyph unicode="&#xd5;" horiz-adv-x="1318" d="M1255 662q0 -127 -43 -247t-121.5 -218.5t-208.5 -157.5t-290 -59q-244 0 -386.5 165.5t-142.5 395.5q0 174 76 325.5t232.5 249.5t363.5 98q238 0 379 -159.5t141 -392.5zM649 66q197 0 327 156.5t130 359.5q0 219 -121 382.5t-328 163.5q-188 0 -315 -155.5 t-127 -360.5q0 -209 129 -377.5t305 -168.5zM786 1440l105 92q16 -12 22.5 -25.5t4.5 -19.5l-3 -6q-27 -61 -59.5 -87t-83.5 -26q-76 0 -199 145l-104 -90q-16 12 -22.5 24.5t-4.5 18.5l2 7q29 63 60 88.5t82 25.5q81 0 200 -147z" />
<glyph unicode="&#xd6;" horiz-adv-x="1318" d="M1255 662q0 -127 -43 -247t-121.5 -218.5t-208.5 -157.5t-290 -59q-244 0 -386.5 165.5t-142.5 395.5q0 174 76 325.5t232.5 249.5t363.5 98q238 0 379 -159.5t141 -392.5zM649 66q197 0 327 156.5t130 359.5q0 219 -121 382.5t-328 163.5q-188 0 -315 -155.5 t-127 -360.5q0 -209 129 -377.5t305 -168.5zM643 1452q0 -16 -41 -54t-57.5 -38t-53 40t-36.5 56q0 14 40 55t54 41q16 0 55 -41t39 -59zM907 1452q0 -16 -41 -54t-57 -38t-53 40t-37 56q0 14 40 55t54 41q16 0 55 -41t39 -59z" />
<glyph unicode="&#xd8;" horiz-adv-x="1318" d="M451 -37l61 -12l-18 -152q-6 -4 -15.5 -12t-30 -18.5t-28.5 -8.5q-18 4 -37 70zM838 1239l-62 8l27 158q6 4 15 11t29.5 16.5t31.5 7.5q16 -6 32 -72zM1255 662q0 -127 -43 -247t-121.5 -218.5t-208.5 -157.5t-290 -59q-244 0 -386.5 165.5t-142.5 395.5q0 174 76 325.5 t232.5 249.5t363.5 98q238 0 379 -159.5t141 -392.5zM649 66q197 0 327 156.5t130 359.5q0 219 -121 382.5t-328 163.5q-188 0 -315 -155.5t-127 -360.5q0 -209 129 -377.5t305 -168.5z" />
<glyph unicode="&#xd9;" horiz-adv-x="1345" d="M1167 1065l-8 -365q-4 -147 -14 -245.5t-41 -196.5t-83 -153.5t-142.5 -90t-219.5 -34.5q-483 0 -483 442l12 643q0 25 -21.5 45t-47 30.5t-47 24t-21.5 29.5h420q-2 -20 -68.5 -54t-68.5 -75l-12 -582q0 -418 372 -417q172 0 264.5 115.5t96.5 398.5l8 485 q0 25 -25.5 44t-56.5 29.5t-55.5 25t-24.5 30.5h397q-4 -18 -66.5 -53t-64.5 -76zM797 1321q-12 -12 -297 197q-10 10 -9 29.5t5 37.5l6 19q8 4 20.5 7t41 8t30.5 -7l164 -221q43 -66 39 -70z" />
<glyph unicode="&#xda;" horiz-adv-x="1345" d="M1167 1065l-8 -365q-4 -147 -14 -245.5t-41 -196.5t-83 -153.5t-142.5 -90t-219.5 -34.5q-483 0 -483 442l12 643q0 25 -21.5 45t-47 30.5t-47 24t-21.5 29.5h420q-2 -20 -68.5 -54t-68.5 -75l-12 -582q0 -418 372 -417q172 0 264.5 115.5t96.5 398.5l8 485 q0 25 -25.5 44t-56.5 29.5t-55.5 25t-24.5 30.5h397q-4 -18 -66.5 -53t-64.5 -76zM582 1317q-6 6 44 79.5t103 143.5l51 72q10 10 30.5 8t41.5 -10l20 -6q2 -8 5.5 -18.5t6.5 -38t-10 -29.5z" />
<glyph unicode="&#xdb;" horiz-adv-x="1345" d="M1167 1065l-8 -365q-4 -147 -14 -245.5t-41 -196.5t-83 -153.5t-142.5 -90t-219.5 -34.5q-483 0 -483 442l12 643q0 25 -21.5 45t-47 30.5t-47 24t-21.5 29.5h420q-2 -20 -68.5 -54t-68.5 -75l-12 -582q0 -418 372 -417q172 0 264.5 115.5t96.5 398.5l8 485 q0 25 -25.5 44t-56.5 29.5t-55.5 25t-24.5 30.5h397q-4 -18 -66.5 -53t-64.5 -76zM963 1294l-256 183l-258 -183q-16 20 110.5 177t149 155t147.5 -158t107 -174z" />
<glyph unicode="&#xdc;" horiz-adv-x="1345" d="M1167 1065l-8 -365q-4 -147 -14 -245.5t-41 -196.5t-83 -153.5t-142.5 -90t-219.5 -34.5q-483 0 -483 442l12 643q0 25 -21.5 45t-47 30.5t-47 24t-21.5 29.5h420q-2 -20 -68.5 -54t-68.5 -75l-12 -582q0 -418 372 -417q172 0 264.5 115.5t96.5 398.5l8 485 q0 25 -25.5 44t-56.5 29.5t-55.5 25t-24.5 30.5h397q-4 -18 -66.5 -53t-64.5 -76zM672 1452q0 -16 -41 -54t-57.5 -38t-53.5 40t-37 56q0 14 40 55t55 41q16 0 55 -41t39 -59zM936 1452q0 -16 -41 -54t-57.5 -38t-53 40t-36.5 56q0 14 39.5 55t54.5 41q16 0 55 -41t39 -59z " />
<glyph unicode="&#xdd;" horiz-adv-x="1103" d="M602 588l-10 -459q0 -25 25.5 -44t57.5 -29.5t58.5 -25t24.5 -30.5h-451q2 20 70.5 54t71.5 75l6 416l-324 520q-25 39 -58 62l-50 35q-16 11 -11 32h410q-2 -18 -44 -32.5t-68.5 -36t-4.5 -60.5l242 -408l297 408q23 29 6.5 48.5t-45.5 29.5t-54.5 23.5t-23.5 27.5h377 q-6 -20 -26 -35l-52 -37q-33 -23 -57 -55zM440 1317q-6 6 44 80l102 143l53 72q10 10 30.5 8t41.5 -10l20 -6q2 -8 5 -18.5t6 -38t-9 -29.5z" />
<glyph unicode="&#xdf;" horiz-adv-x="964" d="M285 0h-228q0 23 48.5 52.5t50.5 56.5l8 454q0 31 -52.5 75t-52.5 67l107 20l2 70q16 518 416 518q127 0 227 -87t100 -239q0 -86 -37.5 -149.5t-93 -97t-111 -59.5t-93 -53.5t-37.5 -60.5q0 -37 55 -79t121.5 -74.5t122 -86t55.5 -112.5q0 -123 -80 -179t-203 -56 q-80 0 -141 20t-61 66l24 98q23 -41 88.5 -74t126.5 -33q115 0 115 109q0 47 -54.5 93t-119 77t-118.5 84t-54 115q0 74 43 123t103 76l121 53q60 26 103 71t43 111q0 100 -74.5 170.5t-174.5 70.5q-84 0 -140.5 -28.5t-84 -87t-38 -119t-12.5 -148.5z" />
<glyph unicode="&#xe0;" horiz-adv-x="755" d="M479 147l2 195q-111 -4 -227 -41q-35 -10 -35 -100q0 -57 28.5 -101.5t74.5 -44.5q12 0 52 22.5t72.5 45t32.5 24.5zM483 387l2 166q0 61 -19.5 87t-90.5 26q-39 0 -76 -17.5t-57.5 -37t-43 -45t-28.5 -31.5q-25 27 -25 133q0 37 73 54t134 17q115 0 190.5 -53t75.5 -143 l-10 -418q0 -29 29 -50.5t56.5 -39t27.5 -35.5l-244 -14l10 114q-41 -53 -99 -86.5t-112 -33.5q-82 0 -140 56t-58 146q0 61 31.5 105.5t85 66t104.5 29.5t109 8q34 0 75 -4zM530 870q-12 -12 -297 197q-10 10 -9 29.5t5 38.5l7 18q8 4 20 7t41 8.5t31 -7.5l164 -221 q42 -66 38 -70z" />
<glyph unicode="&#xe1;" horiz-adv-x="755" d="M479 147l2 195q-111 -4 -227 -41q-35 -10 -35 -100q0 -57 28.5 -101.5t74.5 -44.5q12 0 52 22.5t72.5 45t32.5 24.5zM483 387l2 166q0 61 -19.5 87t-90.5 26q-39 0 -76 -17.5t-57.5 -37t-43 -45t-28.5 -31.5q-25 27 -25 133q0 37 73 54t134 17q115 0 190.5 -53t75.5 -143 l-10 -418q0 -29 29 -50.5t56.5 -39t27.5 -35.5l-244 -14l10 114q-41 -53 -99 -86.5t-112 -33.5q-82 0 -140 56t-58 146q0 61 31.5 105.5t85 66t104.5 29.5t109 8q34 0 75 -4zM254 866q-6 6 44 80t103 144l52 71q10 10 30.5 8t40.5 -10l21 -6q2 -8 5 -18.5t6 -38t-9 -29.5z " />
<glyph unicode="&#xe2;" horiz-adv-x="755" d="M479 147l2 195q-111 -4 -227 -41q-35 -10 -35 -100q0 -57 28.5 -101.5t74.5 -44.5q12 0 52 22.5t72.5 45t32.5 24.5zM483 387l2 166q0 61 -19.5 87t-90.5 26q-39 0 -76 -17.5t-57.5 -37t-43 -45t-28.5 -31.5q-25 27 -25 133q0 37 73 54t134 17q115 0 190.5 -53t75.5 -143 l-10 -418q0 -29 29 -50.5t56.5 -39t27.5 -35.5l-244 -14l10 114q-41 -53 -99 -86.5t-112 -33.5q-82 0 -140 56t-58 146q0 61 31.5 105.5t85 66t104.5 29.5t109 8q34 0 75 -4zM651 858l-256 182l-258 -182q-16 20 111 177t149.5 155t147 -158t106.5 -174z" />
<glyph unicode="&#xe3;" horiz-adv-x="755" d="M479 147l2 195q-111 -4 -227 -41q-35 -10 -35 -100q0 -57 28.5 -101.5t74.5 -44.5q12 0 52 22.5t72.5 45t32.5 24.5zM483 387l2 166q0 61 -19.5 87t-90.5 26q-39 0 -76 -17.5t-57.5 -37t-43 -45t-28.5 -31.5q-25 27 -25 133q0 37 73 54t134 17q115 0 190.5 -53t75.5 -143 l-10 -418q0 -29 29 -50.5t56.5 -39t27.5 -35.5l-244 -14l10 114q-41 -53 -99 -86.5t-112 -33.5q-82 0 -140 56t-58 146q0 61 31.5 105.5t85 66t104.5 29.5t109 8q34 0 75 -4zM504 983l104 92q16 -12 22.5 -25.5t4.5 -19.5l-2 -6q-27 -61 -59.5 -87t-84.5 -26q-76 0 -198 146 l-105 -90q-16 12 -22 24.5t-4 18.5l2 6q29 63 59.5 88.5t81.5 25.5q82 0 201 -147z" />
<glyph unicode="&#xe4;" horiz-adv-x="755" d="M479 147l2 195q-111 -4 -227 -41q-35 -10 -35 -100q0 -57 28.5 -101.5t74.5 -44.5q12 0 52 22.5t72.5 45t32.5 24.5zM483 387l2 166q0 61 -19.5 87t-90.5 26q-39 0 -76 -17.5t-57.5 -37t-43 -45t-28.5 -31.5q-25 27 -25 133q0 37 73 54t134 17q115 0 190.5 -53t75.5 -143 l-10 -418q0 -29 29 -50.5t56.5 -39t27.5 -35.5l-244 -14l10 114q-41 -53 -99 -86.5t-112 -33.5q-82 0 -140 56t-58 146q0 61 31.5 105.5t85 66t104.5 29.5t109 8q34 0 75 -4zM360 1022q0 -16 -40.5 -54t-57 -38t-53.5 40t-37 56q0 14 40 55t54 41q16 0 55 -41t39 -59z M625 1022q0 -16 -41 -54t-57.5 -38t-53.5 40t-37 56q0 14 40 55t54 41q16 0 55.5 -41t39.5 -59z" />
<glyph unicode="&#xe5;" horiz-adv-x="755" d="M479 147l2 195q-111 -4 -227 -41q-35 -10 -35 -100q0 -57 28.5 -101.5t74.5 -44.5q12 0 52 22.5t72.5 45t32.5 24.5zM483 387l2 166q0 61 -19.5 87t-90.5 26q-39 0 -76 -17.5t-57.5 -37t-43 -45t-28.5 -31.5q-25 27 -25 133q0 37 73 54t134 17q115 0 190.5 -53t75.5 -143 l-10 -418q0 -29 29 -50.5t56.5 -39t27.5 -35.5l-244 -14l10 114q-41 -53 -99 -86.5t-112 -33.5q-82 0 -140 56t-58 146q0 61 31.5 105.5t85 66t104.5 29.5t109 8q34 0 75 -4zM580 1030q0 -72 -53.5 -128t-147.5 -56q-74 0 -115 45t-41 108q0 74 53.5 129.5t147.5 55.5 q74 0 115 -45.5t41 -108.5zM403 1155q-111 -12 -110 -135q0 -51 28.5 -92t81.5 -54q106 14 107 136q0 51 -28 92t-79 53z" />
<glyph unicode="&#xe6;" horiz-adv-x="1167" d="M348 739h2q84 0 150.5 -30.5t97.5 -83.5q104 115 276 114q92 0 159 -65.5t83 -167.5l10 -60q-27 -18 -71 -20l-420 -25v-22q0 -117 58.5 -210t133.5 -112l252 78q0 -55 -90 -105t-188 -50h-2q-172 0 -258 137q-139 -137 -265 -137q-82 0 -140 56t-58 146q0 61 31.5 105.5 t85 66t104.5 29.5t109 8q43 0 84 -4l-7 166q0 119 -41 119l-145 -21q-39 -10 -79 -60t-56 -50h-6l-6 153q96 45 196 45zM254 301q-35 -10 -35 -100q0 -55 28.5 -99.5t76.5 -52.5l198 111q-31 94 -30 180q-125 -6 -238 -39zM639 453l352 26q-14 74 -57 128.5t-107 66.5 q-72 -12 -122 -73.5t-66 -147.5z" />
<glyph unicode="&#xe7;" horiz-adv-x="675" d="M444 739q102 0 143.5 -16t41.5 -53l-23 -117q-10 12 -29.5 30.5t-69.5 50.5t-91 32q-78 0 -143.5 -81t-65.5 -206q0 -141 67.5 -219t178.5 -78q100 0 180 41v-10q0 -66 -77 -99.5t-175 -33.5q-154 0 -238 99t-84 245q0 164 102.5 289.5t282.5 125.5zM279 -68l63 29 q68 -8 106.5 -50t38.5 -104q0 -123 -141 -169q-31 -10 -43 24q47 14 72.5 52t25.5 85q0 90 -82 101q-14 0 -24 8t-12 16z" />
<glyph unicode="&#xe8;" horiz-adv-x="741" d="M209 401v-22q0 -135 74.5 -218t187.5 -83q92 0 182 57q4 -57 -42 -94t-105.5 -49t-130.5 -12q-147 0 -230.5 100t-83.5 244q0 164 103.5 289.5t286.5 125.5q90 0 158.5 -66.5t82.5 -166.5l8 -60q-27 -18 -71 -20zM215 453l352 26q-14 74 -63 134.5t-101 60.5 q-59 0 -115.5 -67.5t-72.5 -153.5zM549 870q-12 -12 -297 197q-10 10 -9 29.5t7 38.5l4 18q8 4 20.5 7t41 8.5t30.5 -7.5l164 -221q43 -66 39 -70z" />
<glyph unicode="&#xe9;" horiz-adv-x="741" d="M209 401v-22q0 -135 74.5 -218t187.5 -83q92 0 182 57q4 -57 -42 -94t-105.5 -49t-130.5 -12q-147 0 -230.5 100t-83.5 244q0 164 103.5 289.5t286.5 125.5q90 0 158.5 -66.5t82.5 -166.5l8 -60q-27 -18 -71 -20zM215 453l352 26q-14 74 -63 134.5t-101 60.5 q-59 0 -115.5 -67.5t-72.5 -153.5zM272 866q-6 6 44 80l102 144l53 71q10 10 30.5 8t41.5 -10l20 -6q2 -8 5 -18.5t6.5 -38t-9.5 -29.5z" />
<glyph unicode="&#xea;" horiz-adv-x="741" d="M209 401v-22q0 -135 74.5 -218t187.5 -83q92 0 182 57q4 -57 -42 -94t-105.5 -49t-130.5 -12q-147 0 -230.5 100t-83.5 244q0 164 103.5 289.5t286.5 125.5q90 0 158.5 -66.5t82.5 -166.5l8 -60q-27 -18 -71 -20zM215 453l352 26q-14 74 -63 134.5t-101 60.5 q-59 0 -115.5 -67.5t-72.5 -153.5zM653 858l-256 182l-258 -182q-16 20 111 177t149.5 155t147 -158t106.5 -174z" />
<glyph unicode="&#xeb;" horiz-adv-x="741" d="M209 401v-22q0 -135 74.5 -218t187.5 -83q92 0 182 57q4 -57 -42 -94t-105.5 -49t-130.5 -12q-147 0 -230.5 100t-83.5 244q0 164 103.5 289.5t286.5 125.5q90 0 158.5 -66.5t82.5 -166.5l8 -60q-27 -18 -71 -20zM215 453l352 26q-14 74 -63 134.5t-101 60.5 q-59 0 -115.5 -67.5t-72.5 -153.5zM362 1022q0 -16 -40.5 -54t-57 -38t-53.5 40t-37 56q0 14 40 55t54 41q16 0 55 -41t39 -59zM627 1022q0 -16 -41 -54t-57.5 -38t-53.5 40t-37 56q0 14 40 55t54 41q16 0 55.5 -41t39.5 -59z" />
<glyph unicode="&#xec;" horiz-adv-x="487" d="M170 109l10 469q2 43 -50 72.5t-52 47.5l246 66l-13 -162l-10 -493q0 -23 30.5 -40.5t62.5 -33t30 -35.5h-356q2 23 51 52.5t51 56.5zM356 870q-12 -12 -297 197q-10 10 -9 29.5t7 38.5l4 18q8 4 20.5 7t41.5 8.5t31 -7.5l163 -221q43 -66 39 -70z" />
<glyph unicode="&#xed;" horiz-adv-x="487" d="M170 109l10 469q2 43 -50 72.5t-52 47.5l246 66l-13 -162l-10 -493q0 -23 30.5 -40.5t62.5 -33t30 -35.5h-356q2 23 51 52.5t51 56.5zM100 866q-6 6 44 80l102 144l53 71q10 10 30.5 8t41.5 -10l20 -6q2 -8 5 -18.5t6.5 -38t-9.5 -29.5z" />
<glyph unicode="&#xee;" horiz-adv-x="487" d="M170 109l10 469q2 43 -50 72.5t-52 47.5l246 66l-13 -162l-10 -493q0 -23 30.5 -40.5t62.5 -33t30 -35.5h-356q2 23 51 52.5t51 56.5zM502 858l-256 182l-258 -182q-16 20 110.5 177t149 155t147.5 -158t107 -174z" />
<glyph unicode="&#xef;" horiz-adv-x="487" d="M170 109l10 469q2 43 -50 72.5t-52 47.5l246 66l-13 -162l-10 -493q0 -23 30.5 -40.5t62.5 -33t30 -35.5h-356q2 23 51 52.5t51 56.5zM209 1022q0 -16 -41 -54t-57.5 -38t-53.5 40t-37 56q0 14 40 55t55 41q16 0 55 -41t39 -59zM473 1022q0 -16 -41 -54t-57.5 -38t-53 40 t-36.5 56q0 14 40 55t54 41q16 0 55 -41t39 -59z" />
<glyph unicode="&#xf1;" horiz-adv-x="958" d="M672 461q0 59 -17.5 102t-44 60.5t-46 24.5t-34.5 7q-66 0 -225 -104l-8 -442q-2 -27 62.5 -56.5t64.5 -52.5h-356q2 23 49 51.5t49 57.5l10 466q0 27 -16.5 45.5t-36 26.5t-35.5 18.5t-16 22.5q0 6 2 8l229 66l-16 -160q59 61 139 99t154 38q100 0 163.5 -64.5 t63.5 -182.5l-8 -383q-2 -27 62.5 -56.5t64.5 -52.5h-361q2 23 49.5 51.5t49.5 57.5zM600 983l105 92q16 -12 22 -25.5t4 -19.5l-2 -6q-27 -61 -59.5 -87t-83.5 -26q-76 0 -199 146l-104 -90q-16 12 -22.5 24.5t-4.5 18.5l2 6q29 63 59.5 88.5t81.5 25.5q82 0 201 -147z" />
<glyph unicode="&#xf2;" horiz-adv-x="849" d="M59 324q0 164 111 289.5t307 125.5q147 0 230.5 -99t83.5 -243q0 -166 -111 -291.5t-307 -125.5q-147 0 -230.5 100.5t-83.5 243.5zM641 352q0 127 -59.5 224.5t-157.5 97.5q-100 0 -158.5 -91t-58.5 -216q0 -127 59.5 -224.5t157.5 -97.5q100 0 158.5 91t58.5 216z M573 870q-12 -12 -297 197q-10 10 -9 29.5t7 38.5l5 18q8 4 20 7t41 8.5t31 -7.5l164 -221q42 -66 38 -70z" />
<glyph unicode="&#xf3;" horiz-adv-x="849" d="M59 324q0 164 111 289.5t307 125.5q147 0 230.5 -99t83.5 -243q0 -166 -111 -291.5t-307 -125.5q-147 0 -230.5 100.5t-83.5 243.5zM641 352q0 127 -59.5 224.5t-157.5 97.5q-100 0 -158.5 -91t-58.5 -216q0 -127 59.5 -224.5t157.5 -97.5q100 0 158.5 91t58.5 216z M315 866q-6 6 44.5 80t103.5 144l51 71q10 10 30.5 8t41.5 -10l20 -6q2 -8 5 -18.5t6.5 -38t-9.5 -29.5z" />
<glyph unicode="&#xf4;" horiz-adv-x="849" d="M59 324q0 164 111 289.5t307 125.5q147 0 230.5 -99t83.5 -243q0 -166 -111 -291.5t-307 -125.5q-147 0 -230.5 100.5t-83.5 243.5zM641 352q0 127 -59.5 224.5t-157.5 97.5q-100 0 -158.5 -91t-58.5 -216q0 -127 59.5 -224.5t157.5 -97.5q100 0 158.5 91t58.5 216z M698 858l-256 182l-258 -182q-16 20 111 177t149.5 155t147 -158t106.5 -174z" />
<glyph unicode="&#xf5;" horiz-adv-x="849" d="M59 324q0 164 111 289.5t307 125.5q147 0 230.5 -99t83.5 -243q0 -166 -111 -291.5t-307 -125.5q-147 0 -230.5 100.5t-83.5 243.5zM641 352q0 127 -59.5 224.5t-157.5 97.5q-100 0 -158.5 -91t-58.5 -216q0 -127 59.5 -224.5t157.5 -97.5q100 0 158.5 91t58.5 216z M549 983l104 92q16 -12 22.5 -25.5t4.5 -19.5l-2 -6q-27 -61 -59.5 -87t-83.5 -26q-76 0 -199 146l-105 -90q-16 12 -22 24.5t-4 18.5l2 6q29 63 59.5 88.5t81.5 25.5q82 0 201 -147z" />
<glyph unicode="&#xf6;" horiz-adv-x="849" d="M59 324q0 164 111 289.5t307 125.5q147 0 230.5 -99t83.5 -243q0 -166 -111 -291.5t-307 -125.5q-147 0 -230.5 100.5t-83.5 243.5zM641 352q0 127 -59.5 224.5t-157.5 97.5q-100 0 -158.5 -91t-58.5 -216q0 -127 59.5 -224.5t157.5 -97.5q100 0 158.5 91t58.5 216z M408 1022q0 -16 -41 -54t-57.5 -38t-53.5 40t-37 56q0 14 40 55t54 41q16 0 55.5 -41t39.5 -59zM672 1022q0 -16 -41 -54t-57.5 -38t-53.5 40t-37 56q0 14 40 55t55 41q16 0 55 -41t39 -59z" />
<glyph unicode="&#xf7;" horiz-adv-x="602" d="M397 176q0 -16 -41 -54t-57 -38t-53 40t-37 56q0 14 40 55t54 41q16 0 55 -41t39 -59zM403 643q0 -16 -40.5 -54t-57 -38t-53.5 40t-37 56q0 14 40 55t54 41q16 0 55 -41t39 -59zM152 457l360 14q-25 -96 -49 -98l-373 -21q39 105 62 105z" />
<glyph unicode="&#xf8;" horiz-adv-x="849" d="M557 764l-47 6l16 156q6 6 14.5 13t28 19.5t29.5 10.5q8 -2 16.5 -19.5t12.5 -34.5l4 -16zM299 -43l47 -6l-16 -156q-6 -6 -14.5 -13t-28 -19.5t-29.5 -10.5q-8 2 -16.5 19.5t-12.5 33.5l-4 17zM59 324q0 164 111 289.5t307 125.5q147 0 230.5 -99t83.5 -243 q0 -166 -111 -291.5t-307 -125.5q-147 0 -230.5 100.5t-83.5 243.5zM641 352q0 127 -59.5 224.5t-157.5 97.5q-100 0 -158.5 -91t-58.5 -216q0 -127 59.5 -224.5t157.5 -97.5q100 0 158.5 91t58.5 216z" />
<glyph unicode="&#xf9;" horiz-adv-x="944" d="M782 602l-6 -477q0 -29 25.5 -50.5t51.5 -39t26 -35.5l-234 -14l21 149q-147 -156 -295 -155q-100 0 -164 63t-64 184l9 351q0 27 -15.5 45t-35 27t-35 21.5t-15.5 26.5l246 66l-12 -162l-4 -364q-2 -66 36.5 -115t110.5 -49t219 110l4 394q0 43 -51 72.5t-51 47.5 l246 66zM586 870q-12 -12 -297 197q-10 10 -9 29.5t7 38.5l4 18q8 4 20.5 7t41 8.5t30.5 -7.5l164 -221q43 -66 39 -70z" />
<glyph unicode="&#xfa;" horiz-adv-x="944" d="M782 602l-6 -477q0 -29 25.5 -50.5t51.5 -39t26 -35.5l-234 -14l21 149q-147 -156 -295 -155q-100 0 -164 63t-64 184l9 351q0 27 -15.5 45t-35 27t-35 21.5t-15.5 26.5l246 66l-12 -162l-4 -364q-2 -66 36.5 -115t110.5 -49t219 110l4 394q0 43 -51 72.5t-51 47.5 l246 66zM348 866q-6 6 44 80t104 144l51 71q10 10 30.5 8t40.5 -10l21 -6q2 -8 5 -18.5t6 -38t-9 -29.5z" />
<glyph unicode="&#xfb;" horiz-adv-x="944" d="M782 602l-6 -477q0 -29 25.5 -50.5t51.5 -39t26 -35.5l-234 -14l21 149q-147 -156 -295 -155q-100 0 -164 63t-64 184l9 351q0 27 -15.5 45t-35 27t-35 21.5t-15.5 26.5l246 66l-12 -162l-4 -364q-2 -66 36.5 -115t110.5 -49t219 110l4 394q0 43 -51 72.5t-51 47.5 l246 66zM698 858l-256 182l-258 -182q-16 20 111 177t149.5 155t147 -158t106.5 -174z" />
<glyph unicode="&#xfc;" horiz-adv-x="944" d="M782 602l-6 -477q0 -29 25.5 -50.5t51.5 -39t26 -35.5l-234 -14l21 149q-147 -156 -295 -155q-100 0 -164 63t-64 184l9 351q0 27 -15.5 45t-35 27t-35 21.5t-15.5 26.5l246 66l-12 -162l-4 -364q-2 -66 36.5 -115t110.5 -49t219 110l4 394q0 43 -51 72.5t-51 47.5 l246 66zM428 1022q0 -16 -41 -54t-57.5 -38t-53 40t-36.5 56q0 14 39.5 55t54.5 41q16 0 55 -41t39 -59zM692 1022q0 -16 -41 -54t-57 -38t-53 40t-37 56q0 14 40 55t54 41q16 0 55 -41t39 -59z" />
<glyph unicode="&#xfd;" horiz-adv-x="776" d="M340 0l-262 610q-10 25 -43 53.5t-27 55.5h322q-2 -20 -61.5 -48t-47.5 -61l182 -471l175 471q12 33 -35 60.5t-45 48.5h266q-6 -23 -43 -50.5t-51 -58.5l-385 -913q-76 -156 -213 -178q-49 8 -66.5 34.5t-30.5 90.5q94 2 161 31.5t89 76.5zM262 866q-6 6 44 80t104 144 l51 71q10 10 30.5 8t40.5 -10l21 -6q2 -8 5 -18.5t6 -38t-9 -29.5z" />
<glyph unicode="&#xff;" horiz-adv-x="776" d="M340 0l-262 610q-10 25 -43 53.5t-27 55.5h322q-2 -20 -61.5 -48t-47.5 -61l182 -471l175 471q12 33 -35 60.5t-45 48.5h266q-6 -23 -43 -50.5t-51 -58.5l-385 -913q-76 -156 -213 -178q-49 8 -66.5 34.5t-30.5 90.5q94 2 161 31.5t89 76.5zM387 1022q0 -16 -41 -54 t-57.5 -38t-53 40t-36.5 56q0 14 40 55t54 41q16 0 55 -41t39 -59zM651 1022q0 -16 -41 -54t-57 -38t-53 40t-37 56q0 14 40 55t54 41q16 0 55 -41t39 -59z" />
<glyph unicode="&#x152;" horiz-adv-x="1445" d="M666 74l18 1046q-233 -27 -356 -166t-123 -321q0 -203 137.5 -381t323.5 -178zM1356 1194l-25 -238q-16 0 -34.5 21.5t-33 47.5t-45 48.5t-71.5 24.5l-328 8v-440l328 6q41 2 74.5 47t54.5 45l-6 -313q-20 0 -51 63.5t-72 65.5l-338 6v-494h381q51 0 114.5 76t86.5 76 l-45 -244h-760q-225 0 -374 167t-149 392q0 162 71 303.5t227.5 236.5t373.5 95h621z" />
<glyph unicode="&#x153;" horiz-adv-x="1314" d="M782 401v-22q0 -135 75 -218t187 -83q92 0 183 57q4 -57 -42 -94t-105.5 -49t-131.5 -12q-170 0 -258 139q-115 -139 -317 -139q-147 0 -230.5 100t-83.5 244q0 164 111 289.5t307 125.5q170 0 256 -133q113 133 291 133q90 0 158.5 -66.5t83.5 -166.5l8 -60 q-27 -18 -72 -20zM641 352q0 127 -59.5 224.5t-157.5 97.5q-100 0 -158.5 -91t-58.5 -216q0 -127 59.5 -224.5t157.5 -97.5q100 0 158.5 91t58.5 216zM788 453l353 26q-14 74 -63.5 134.5t-100.5 60.5q-59 0 -116 -67.5t-73 -153.5z" />
<glyph unicode="&#x178;" horiz-adv-x="1103" d="M602 588l-10 -459q0 -25 25.5 -44t57.5 -29.5t58.5 -25t24.5 -30.5h-451q2 20 70.5 54t71.5 75l6 416l-324 520q-25 39 -58 62l-50 35q-16 11 -11 32h410q-2 -18 -44 -32.5t-68.5 -36t-4.5 -60.5l242 -408l297 408q23 29 6.5 48.5t-45.5 29.5t-54.5 23.5t-23.5 27.5h377 q-6 -20 -26 -35l-52 -37q-33 -23 -57 -55zM537 1452q0 -16 -41 -54t-57.5 -38t-53.5 40t-37 56q0 14 40 55t54 41q16 0 55.5 -41t39.5 -59zM801 1452q0 -16 -41 -54t-57.5 -38t-53.5 40t-37 56q0 14 40 55t55 41q16 0 55 -41t39 -59z" />
<glyph unicode="&#x2c6;" horiz-adv-x="903" d="M698 899l-256 182l-258 -182q-16 20 111 177t149.5 155t147 -158t106.5 -174z" />
<glyph unicode="&#x2dc;" horiz-adv-x="1024" d="M600 1024l105 92q16 -12 22 -25.5t4 -19.5l-2 -6q-27 -61 -59.5 -87t-83.5 -26q-76 0 -199 146l-104 -90q-16 12 -22.5 24t-4.5 19l2 6q29 63 59.5 88.5t81.5 25.5q82 0 201 -147z" />
<glyph unicode="&#x2000;" horiz-adv-x="813" />
<glyph unicode="&#x2001;" horiz-adv-x="1628" />
<glyph unicode="&#x2002;" horiz-adv-x="813" />
<glyph unicode="&#x2003;" horiz-adv-x="1628" />
<glyph unicode="&#x2004;" horiz-adv-x="542" />
<glyph unicode="&#x2005;" horiz-adv-x="405" />
<glyph unicode="&#x2006;" horiz-adv-x="270" />
<glyph unicode="&#x2007;" horiz-adv-x="270" />
<glyph unicode="&#x2008;" horiz-adv-x="202" />
<glyph unicode="&#x2009;" horiz-adv-x="325" />
<glyph unicode="&#x200a;" horiz-adv-x="90" />
<glyph unicode="&#x2010;" horiz-adv-x="602" d="M152 512l360 14q-25 -96 -49 -98l-373 -20q39 104 62 104z" />
<glyph unicode="&#x2011;" horiz-adv-x="602" d="M152 512l360 14q-25 -96 -49 -98l-373 -20q39 104 62 104z" />
<glyph unicode="&#x2012;" horiz-adv-x="602" d="M152 512l360 14q-25 -96 -49 -98l-373 -20q39 104 62 104z" />
<glyph unicode="&#x2013;" horiz-adv-x="819" d="M68 432h710q-6 -90 -26 -90h-711q4 90 27 90z" />
<glyph unicode="&#x2014;" horiz-adv-x="1529" d="M68 432h1421q-6 -90 -27 -90h-1421q4 90 27 90z" />
<glyph unicode="&#x2018;" horiz-adv-x="301" d="M233 938q0 -16 -44 -61.5t-58 -45.5l-102 89q12 92 64 175t122 83q23 0 45 -15q-92 -61 -106 -135q79 -70 79 -90z" />
<glyph unicode="&#x2019;" horiz-adv-x="301" d="M70 1090q0 16 44 61t58 45l102 -88q-12 -92 -64 -175t-122 -83q-23 0 -45 14q92 61 107 135q-80 71 -80 91z" />
<glyph unicode="&#x201a;" horiz-adv-x="301" d="M70 70q0 16 44 61t58 45l102 -88q-12 -92 -64 -175t-122 -83q-23 0 -45 14q92 61 107 136q-80 70 -80 90z" />
<glyph unicode="&#x201c;" horiz-adv-x="567" d="M233 938q0 -16 -44 -61.5t-58 -45.5l-102 89q12 92 64 175t122 83q23 0 45 -15q-92 -61 -106 -135q79 -70 79 -90zM500 938q0 -16 -44 -61.5t-59 -45.5l-102 89q12 92 64.5 175t121.5 83q23 0 45 -15q-92 -61 -106 -135q80 -70 80 -90z" />
<glyph unicode="&#x201d;" horiz-adv-x="567" d="M70 1090q0 16 44 61t58 45l102 -88q-12 -92 -64 -175t-122 -83q-23 0 -45 14q92 61 107 135q-80 71 -80 91zM336 1090q0 16 44 61t58 45l103 -88q-12 -92 -64.5 -175t-122.5 -83q-23 0 -45 14q92 61 107 135q-80 71 -80 91z" />
<glyph unicode="&#x201e;" horiz-adv-x="745" d="M94 70q0 16 44 61t59 45l102 -88q-12 -92 -64.5 -175t-121.5 -83q-23 0 -45 14q92 61 106 136q-80 70 -80 90zM412 70q0 16 44 61t58 45l102 -88q-12 -92 -64 -175t-122 -83q-23 0 -45 14q92 61 107 136q-80 70 -80 90z" />
<glyph unicode="&#x2022;" horiz-adv-x="890" d="M723 449q0 -72 -107.5 -172.5t-185.5 -100.5q-74 0 -170 104.5t-96 182.5q0 72 105.5 179.5t174.5 107.5q74 0 176.5 -109.5t102.5 -191.5z" />
<glyph unicode="&#x2026;" horiz-adv-x="1042" d="M614 72q0 -16 -41 -54t-57 -38t-53 39.5t-37 56.5q0 14 40 55t54 41q16 0 55 -41t39 -59zM961 72q0 -16 -41 -54t-57.5 -38t-53.5 39.5t-37 56.5q0 14 40 55t54 41q16 0 55.5 -41t39.5 -59zM270 72q0 -16 -41 -54t-57 -38t-53 39.5t-37 56.5q0 14 40 55t54 41 q16 0 55 -41t39 -59z" />
<glyph unicode="&#x202f;" horiz-adv-x="325" />
<glyph unicode="&#x2039;" horiz-adv-x="579" d="M532 860l-264 -358l250 -352q-18 -16 -132 65.5t-219.5 176.5t-105.5 112q2 31 224 206t247 150z" />
<glyph unicode="&#x203a;" horiz-adv-x="579" d="M311 502l-264 358q25 25 247 -150t224 -206q0 -16 -105.5 -111.5t-219 -177.5t-132.5 -65z" />
<glyph unicode="&#x205f;" horiz-adv-x="405" />
<glyph unicode="&#x20ac;" horiz-adv-x="1124" d="M1061 956q-20 18 -54 46t-132.5 73t-186.5 45q-184 0 -300 -105.5t-152 -271.5l761 19q-29 -96 -49 -96l-727 -27v-35q0 -49 10 -106l693 18q-29 -96 -50 -96l-614 -25q53 -133 167 -215t265 -82q117 0 221.5 29t151.5 57l45 31q4 -16 4 -25q0 -88 -155.5 -148 t-307.5 -60q-274 0 -433 162.5t-159 396.5q0 174 71 323.5t226.5 249.5t370.5 100q139 0 252 -26.5t113 -85.5q0 -107 -31 -146z" />
<glyph unicode="&#x2122;" horiz-adv-x="1605" d="M555 1126h-149l-11 -479q0 -16 48.5 -34.5t43.5 -37.5h-260q2 18 37 37t35 35l10 479h-141q-25 2 -53.5 -36.5t-44.5 -36.5l10 137l239 -8h80q43 2 129 4t127 4l-4 -137q-16 -2 -42.5 36.5t-53.5 36.5zM850 1047l-8 -400q0 -14 25 -24l52 -21q26 -10 23 -27h-242 q2 18 40 37t38 35l10 469q0 14 -44 33.5t-37 38.5h178l233 -483l238 483h170q-4 -18 -39 -35.5t-35 -36.5l-10 -469q0 -14 23 -24l46 -21q23 -10 21 -27h-270q2 18 40.5 37t38.5 35l15 408l-246 -494q-27 0 -37 21l-207 415z" />
<glyph unicode="&#xe000;" horiz-adv-x="720" d="M0 720h720v-720h-720v720z" />
<glyph unicode="&#xfb01;" horiz-adv-x="968" d="M297 719h2h289q-18 -61 -39 -66l-252 -39l-10 -505q0 -25 51 -42.5t102.5 -33t48.5 -33.5h-432q2 23 50.5 51.5t48.5 57.5l8 454q2 31 -53.5 75t-51.5 67l105 20l2 70q2 70 10 119t44 119.5t98.5 119.5t181 95t282.5 67q43 -8 56.5 -59.5t-2.5 -112.5q-61 18 -146.5 21 t-173.5 -11t-149.5 -67.5t-63.5 -137.5zM686 109l10 469q2 43 -18.5 79.5t-22.5 57.5l185 49l-13 -162l-10 -493q0 -23 31 -40.5t62.5 -33t29.5 -35.5h-356q2 23 51 52.5t51 56.5z" />
<glyph unicode="&#xfb02;" horiz-adv-x="968" d="M834 1153l-21 -1044q0 -23 32 -40.5t64.5 -33t30.5 -35.5h-356q2 23 49 52.5t49 56.5l20 1019q0 10 5 35q-96 8 -182.5 -6t-153 -67.5t-68.5 -141.5l-6 -229h291q-18 -61 -39 -66l-252 -39l-10 -505q0 -25 51 -42.5t102.5 -33t48.5 -33.5h-432q2 23 50.5 51.5t48.5 57.5 l8 454q2 31 -53.5 75t-51.5 67l105 20l2 70q2 72 9 119t42 119.5t95.5 120.5t178 94t281.5 67h76z" />
<glyph unicode="&#xfb03;" horiz-adv-x="1495" d="M156 109l8 454q2 31 -53.5 75t-51.5 67l107 20l2 70q8 305 204.5 399t581.5 18q145 74 369 103q43 -8 56.5 -59.5t-3.5 -112.5q-61 18 -146 21t-173 -11t-149.5 -67.5t-63.5 -137.5l-6 -229h290q-18 -61 -38 -66l-252 -39l-11 -505q0 -25 51.5 -42.5t102.5 -33t49 -33.5 h-432q2 23 50 51.5t48 57.5l9 454q0 10 -4.5 20.5t-14.5 20.5l-17 18q-7 7 -20.5 18t-19.5 15l-332 -41l-10 -505q0 -25 51 -42.5t102.5 -33t48.5 -33.5h-432q2 23 50.5 51.5t48.5 57.5zM707 795q4 209 118 325l-6 -2q-29 4 -96.5 12.5t-96 11.5t-84 3t-81 -10.5t-61 -31 t-53 -56t-31 -91t-15.5 -129.5l-2 -108h373l33 6zM1212 109l11 469q2 43 -18.5 79.5t-22.5 57.5l184 49l-12 -162l-11 -493q0 -23 31 -40.5t62.5 -33t29.5 -35.5h-356q2 23 51 52.5t51 56.5z" />
<glyph unicode="&#xfb04;" horiz-adv-x="1513" d="M156 109l8 454q2 31 -53.5 75t-51.5 67l107 20l2 70q8 301 197.5 396t564.5 26q145 70 368 98h76l-14 -162l-21 -1044q0 -23 32 -40.5t64.5 -33t30.5 -35.5h-356q2 23 49 52.5t49 56.5l21 1019q0 10 4 35q-66 10 -135.5 6t-127 -18t-95 -65.5t-39.5 -137.5l-7 -229h291 q-18 -61 -39 -66l-252 -39l-10 -505q0 -25 51.5 -42.5t102.5 -33t49 -33.5h-432q2 23 50 51.5t48 57.5l8 454q0 10 -4 20.5t-14 20.5l-18 18q-7 7 -20 18t-19 15l-324 -41l-10 -505q0 -25 51 -42.5t102.5 -33t48.5 -33.5h-432q2 23 50.5 51.5t48.5 57.5zM698 795 q2 109 21.5 185.5t75.5 139.5q-25 2 -76 9.5t-74.5 9.5t-68 5t-66 -1t-55 -11.5t-52 -22.5t-41 -40t-33 -57.5t-18.5 -79.5t-10 -105l-2 -108h365l32 6z" />
<glyph horiz-adv-x="409" />
</font>
</defs>
</svg>
